<?xml version="1.0" encoding="utf-8"?>
<!-- Generator: Adobe Illustrator 18.0.0, SVG Export Plug-In . SVG Version: 6.00 Build 0)  -->
<!DOCTYPE svg PUBLIC "-//W3C//DTD SVG 1.1//EN" "http://www.w3.org/Graphics/SVG/1.1/DTD/svg11.dtd">
<svg version="1.1" id="Layer_1" xmlns="http://www.w3.org/2000/svg" xmlns:xlink="http://www.w3.org/1999/xlink" x="0px" y="0px"
	 viewBox="0 0 25 25" enable-background="new 0 0 25 25" xml:space="preserve">
<path fill="#0C51A3" d="M21.7,0H3.3C1.1,0,0,1.1,0,3.3v18.6C0,24,1.1,25,3.3,25h18.4c2.1,0,3.3-1.1,3.3-3.3V3.3
	C24.9,1.1,23.8,0,21.7,0z"/>
<path fill="#FFFFFF" d="M18.6,14.8l-6.3-11C6.7,6.2,4,7.5,4,7.8c0,0,0,0.1,0.1,0.1h0.1c0.8,0,3.1-0.6,7-1.9l1.4,3.5L1.7,15
	c0.5,0.9,1.2,1.3,1.8,1.3c0.6,0,1.2-0.4,1.9-1.3c0.6,0.9,1.2,1.3,1.9,1.3c0.6,0,1.1-0.4,1.5-1.3c0.6,0.9,1.2,1.4,1.8,1.4
	c0.5,0,1-0.5,1.4-1.4c0.6,0.9,1.2,1.3,1.8,1.3c0.6,0,1.1-0.4,1.5-1.3c0,0.2,0.3,0.4,0.7,0.8c0.5,0.3,0.8,0.5,1.1,0.5
	C17.6,16.2,18.1,15.7,18.6,14.8z M22,19.1v-1.2c-0.5,1.5-1.1,2.2-1.6,2.2c-0.3,0-0.7-0.4-1.2-1.1c-0.4-0.6-0.6-0.9-0.6-1
	c0,0,0-0.1,0.1-0.1c-0.5,1.3-1,2-1.5,2c-0.2,0-0.6-0.2-1.1-0.7c-0.4-0.5-0.7-0.9-0.7-1.1l0,0c-0.1,0-0.4,0.4-0.8,1
	c-0.4,0.6-0.6,0.9-0.7,0.9c-0.6,0-1.2-0.6-1.8-1.8c-0.4,1.3-0.9,1.9-1.4,1.9c-0.4,0-0.8-0.3-1.2-1c-0.4-0.5-0.5-0.8-0.5-0.9
	c-0.4,1.3-0.9,1.9-1.5,1.9c-0.6,0-1.3-0.6-1.9-1.9c-0.6,1.3-1.3,1.9-1.9,1.9c-0.7,0-1.3-0.6-1.8-1.9v1.3c0.5,1.2,1.2,1.8,1.8,1.8
	c0.6,0,1.3-0.6,1.9-1.8c0.6,1.2,1.2,1.8,1.9,1.8c0.6,0,1.1-0.6,1.5-1.8c0.6,1.3,1.2,1.9,1.8,1.9c0.5,0,1-0.6,1.4-1.9
	c0.6,1.2,1.2,1.8,1.8,1.8s1.1-0.6,1.5-1.9c0,0,0.1,0.1,0.2,0.3c0.1,0.2,0.2,0.4,0.4,0.6c0.4,0.6,0.8,0.9,1.2,0.9
	c0.5,0,1.1-0.7,1.5-2c-0.1,0-0.1,0-0.1,0c0,0.1,0.2,0.4,0.6,1c0.5,0.7,1,1.1,1.2,1.1C20.9,21.2,21.5,20.5,22,19.1z M23.3,10
	c0-0.4-0.1-0.7-0.2-1c-0.1-0.3-0.3-0.6-0.5-0.8c-0.2-0.2-0.5-0.4-0.8-0.6c-0.3-0.1-0.6-0.2-0.9-0.2c-0.3,0-0.6,0.1-0.9,0.2
	c-0.3,0.1-0.5,0.3-0.7,0.6c-0.2,0.2-0.4,0.5-0.5,0.8c-0.1,0.3-0.2,0.7-0.2,1c0,0.4,0.1,0.7,0.2,1c0.1,0.3,0.3,0.6,0.5,0.8
	c0.2,0.2,0.5,0.4,0.7,0.6c0.3,0.1,0.6,0.2,0.9,0.2c0.6,0,1.2-0.2,1.7-0.8C23.1,11.3,23.3,10.7,23.3,10z"/>
</svg>
