<?xml version="1.0" encoding="utf-8"?>
<!-- Generator: Adobe Illustrator 18.0.0, SVG Export Plug-In . SVG Version: 6.00 Build 0)  -->
<!DOCTYPE svg PUBLIC "-//W3C//DTD SVG 1.1//EN" "http://www.w3.org/Graphics/SVG/1.1/DTD/svg11.dtd">
<svg version="1.1" id="Layer_1" xmlns="http://www.w3.org/2000/svg" xmlns:xlink="http://www.w3.org/1999/xlink" x="0px" y="0px"
	 viewBox="0 0 25 25" enable-background="new 0 0 25 25" xml:space="preserve">
<path fill="#684C2B" d="M21.7,0H3.3C1.1,0,0,1.1,0,3.3v18.5C0,23.9,1.1,25,3.3,25h18.4c2.1,0,3.3-1.1,3.3-3.3V3.3
	C24.9,1.1,23.8,0,21.7,0z"/>
<path fill="#FFFFFF" d="M22.3,15.9c-0.8-0.8-1.8-1.2-2.9-1.2c-0.6,0-1.2,0.1-1.9,0.4L16,12.6V9.8h-3.5v0.8H15v1.7H9.4v-1.8H10V9.8
	H6.7v0.8h1.8v2.3l-1,1.9c-0.7-0.3-1.3-0.4-1.8-0.4c-1.1,0-2,0.5-2.9,1.3s-1.3,1.8-1.3,2.8s0.5,2,1.3,2.8c0.9,0.9,1.8,1.3,2.9,1.3
	s2-0.5,2.9-1.3c0.9-0.9,1.3-1.8,1.3-2.9v-0.3l0.8-0.2c0.4,0.6,0.7,0.9,1,0.9h0.2c0.4,0,0.7-0.1,1-0.4c0.2-0.3,0.4-0.6,0.4-1.1
	l3.2-2.2l0.3,0.4c-1.1,0.9-1.6,2-1.6,3.3c0,1.2,0.4,2.2,1.2,3c0.8,0.8,1.8,1.2,3,1.2c1.1,0,2.1-0.4,2.9-1.2c0.8-0.8,1.2-1.8,1.2-3
	C23.5,17.7,23.1,16.7,22.3,15.9z M7.6,16.2C8,16.5,8.3,17,8.5,17.7l-2,0.6L7.6,16.2z M7.7,20.4c-0.6,0.5-1.3,0.8-2.1,0.8
	c-0.4,0-0.7,0-1.1-0.2c-0.3-0.1-0.6-0.3-0.9-0.6c-0.2-0.2-0.4-0.5-0.6-0.9c-0.1-0.3-0.2-0.7-0.2-1.1c0-0.8,0.2-1.4,0.8-2
	c0.6-0.5,1.3-0.8,2.1-0.8c0.4,0,0.8,0.1,1.2,0.3L5.1,19l3.5-0.7C8.6,19.1,8.3,19.8,7.7,20.4z M9.6,17.5c-0.2-0.9-0.7-1.6-1.5-2.3
	l1-1.3l1.7,3.3L9.6,17.5z M12,18.3c-0.3,0-0.5-0.2-0.5-0.5s0.2-0.5,0.5-0.5s0.4,0.2,0.4,0.5S12.3,18.3,12,18.3z M12.8,16.8l-0.4-0.1
	c-0.2-0.1-0.4-0.1-0.5-0.1s-0.3,0-0.4,0.1l-1.8-3.6h5.6l0.8,1.3L12.8,16.8z M21.5,20.8c-0.6,0.5-1.3,0.8-2.1,0.8
	c-0.4,0-0.7,0-1.1-0.2c-0.3-0.1-0.6-0.3-0.9-0.6c-0.2-0.2-0.4-0.5-0.6-0.9c-0.1-0.3-0.2-0.7-0.2-1.1c0-0.8,0.3-1.5,0.9-2.1l1.7,2.6
	l0.6-0.4l-1.6-2.7c0.4-0.2,0.9-0.3,1.3-0.3s0.7,0,1.1,0.2c0.3,0.1,0.6,0.3,0.9,0.6c0.3,0.3,0.5,0.6,0.7,0.9c0.1,0.3,0.2,0.7,0.2,1.1
	C22.4,19.5,22.1,20.2,21.5,20.8z"/>
<g>
	<path fill="#FFFFFF" d="M1.5,3h1.6c0.3,0,0.6,0,0.7,0C4,3,4.1,3.1,4.3,3.2c0.2,0.2,0.4,0.4,0.5,0.6s0.1,0.5,0.1,0.8
		c0,0.7-0.2,1.1-0.7,1.4l1,2.3H3.9L3.2,6.1H2.6v2.1H1.4V3H1.5z M2.6,3.8v1.5h0.5c0.4,0,0.7-0.3,0.7-0.8c0-0.2,0-0.3-0.1-0.4
		C3.6,4,3.6,3.9,3.5,3.9S3.2,3.8,3.1,3.8H2.6z"/>
	<path fill="#FFFFFF" d="M5.7,3h3.2v0.9h-2v1.2h1.6V6H6.9v1.3h2v0.9H5.7V3z"/>
	<path fill="#FFFFFF" d="M9.5,3h1.2L12,6.3V3h0.9v5.2h-1l-1.6-3.8v3.8H9.5V3z"/>
	<path fill="#FFFFFF" d="M13.3,3h3.3v1h-1.1v4.3h-1.2V4h-1V3z"/>
	<path fill="#FFFFFF" d="M17.8,3H19l1.5,5.2h-1.2L19,7.1h-1.5l-0.3,1.1h-1.1L17.8,3z M18.8,6.2l-0.5-2.1l-0.5,2.1H18.8z"/>
	<path fill="#FFFFFF" d="M20.9,3h1.2v4.3h1.6v1h-2.8C20.9,8.3,20.9,3,20.9,3z"/>
</g>
</svg>
