<?xml version="1.0" encoding="utf-8"?>
<!-- Generator: Adobe Illustrator 18.0.0, SVG Export Plug-In . SVG Version: 6.00 Build 0)  -->
<!DOCTYPE svg PUBLIC "-//W3C//DTD SVG 1.1//EN" "http://www.w3.org/Graphics/SVG/1.1/DTD/svg11.dtd">
<svg version="1.1" id="Layer_1" xmlns="http://www.w3.org/2000/svg" xmlns:xlink="http://www.w3.org/1999/xlink" x="0px" y="0px"
	 viewBox="0 0 25 25" enable-background="new 0 0 25 25" xml:space="preserve">
<path fill="#585747" d="M21.8,0H3.3C1.1,0,0,1.1,0,3.3v18.5C0,23.9,1.1,25,3.3,25h18.4c2.1,0,3.3-1.1,3.3-3.3V3.3
	C25,1.1,23.9,0,21.8,0z"/>
<g>
	<path fill="#FFFFFF" d="M10.9,14.7c0.7,0,1.1,0.4,1.6,1.4h2.3c-1.1-1.9-1.8-2.9-2.1-3h-0.2c-1,0-2.8,0.8-5.2,2.2L7.6,16
		C9.5,15.1,10.6,14.7,10.9,14.7z"/>
	<polygon fill="#FFFFFF" points="8.3,16.7 9.7,16.8 8.8,16.1 8,16.4 	"/>
	<path fill="#FFFFFF" d="M10.6,13c0.3,0,0.4,0,0.7-0.2c0.1-0.2,0.2-0.4,0.2-0.7c0-0.6-0.3-0.9-0.9-0.9s-0.9,0.3-1,0.9
		C9.6,12.7,9.9,13,10.6,13z"/>
	<path fill="#FFFFFF" d="M1.5,16.8c0.3,0.9,0.6,1.3,0.6,1.4c0.3,0.8,0.8,1.2,1.3,1.2h0.1c0.4,0,0.8-0.2,1.1-0.7
		c0.2,0.4,0.7,0.7,1.2,0.7c0.4,0,0.9-0.2,1.1-0.7c0.2,0.4,0.7,0.7,1.2,0.7c0.4,0,0.8-0.2,1.1-0.7c0.1,0.2,0.6,0.4,1.3,0.4l-2.2-2.4
		H1.5V16.8z"/>
	<polygon fill="#FFFFFF" points="10.7,19.4 12.5,20.8 14.2,20.8 12.7,19.7 	"/>
	<path fill="#FFFFFF" d="M9.9,16.9c0,0.2,0.2,0.4,0.4,0.7c0.2,0.2,0.6,0.6,0.9,0.8c0.8,0.8,1.3,1.1,1.6,1.1c0.4,0,0.8-0.2,1-0.6
		c0.2,0.3,0.7,0.6,1.3,0.6s0.9-0.2,1.1-0.6c0.2,0.3,0.7,0.6,1.3,0.6c0.3,0,0.7-0.2,1-0.7c0.3,0.4,0.8,0.7,1.2,0.7
		c0.7,0,1-0.2,1.2-0.6c0.3,0.3,0.7,0.6,1.1,0.6c0.2,0,0.6-0.3,0.9-1.1c0.1-0.2,0.2-0.6,0.3-0.8c0.1-0.2,0.2-0.4,0.3-0.7H9.9z"/>
</g>
<g>
	<path fill="#FFFFFF" d="M1.5,3h1.6c0.3,0,0.6,0,0.7,0C4,3,4.1,3.1,4.3,3.2c0.2,0.2,0.4,0.4,0.5,0.6s0.1,0.5,0.1,0.8
		c0,0.7-0.2,1.1-0.7,1.4l1,2.3H3.9L3.2,6.1H2.6v2.1H1.4V3H1.5z M2.6,3.8v1.5h0.5c0.4,0,0.7-0.3,0.7-0.8c0-0.2,0-0.3-0.1-0.4
		C3.6,4,3.6,3.9,3.5,3.9S3.2,3.8,3.1,3.8H2.6z"/>
	<path fill="#FFFFFF" d="M5.7,3h3.2v0.9h-2v1.2h1.6V6H6.9v1.3h2v0.9H5.7V3z"/>
	<path fill="#FFFFFF" d="M9.5,3h1.2L12,6.3V3h0.9v5.2h-1l-1.6-3.8v3.8H9.5V3z"/>
	<path fill="#FFFFFF" d="M13.3,3h3.3v1h-1.1v4.3h-1.2V4h-1V3z"/>
	<path fill="#FFFFFF" d="M17.8,3H19l1.5,5.2h-1.2L19,7.1h-1.5l-0.3,1.1h-1.1L17.8,3z M18.8,6.2l-0.5-2.1l-0.5,2.1H18.8z"/>
	<path fill="#FFFFFF" d="M20.9,3h1.2v4.3h1.6v1h-2.8C20.9,8.3,20.9,3,20.9,3z"/>
</g>
</svg>
