<?xml version="1.0" encoding="utf-8"?>
<!-- Generator: Adobe Illustrator 18.0.0, SVG Export Plug-In . SVG Version: 6.00 Build 0)  -->
<!DOCTYPE svg PUBLIC "-//W3C//DTD SVG 1.1//EN" "http://www.w3.org/Graphics/SVG/1.1/DTD/svg11.dtd">
<svg version="1.1" id="Layer_1" xmlns="http://www.w3.org/2000/svg" xmlns:xlink="http://www.w3.org/1999/xlink" x="0px" y="0px"
	 viewBox="0 0 25 25" enable-background="new 0 0 25 25" xml:space="preserve">
<path fill="#0C51A3" d="M21.7,0H3.3C1.1,0,0,1.1,0,3.3v18.4C0,23.8,1.1,25,3.3,25h18.4c2.1,0,3.3-1.1,3.3-3.3V3.3
	C24.9,1.1,23.8,0,21.7,0z"/>
<g>
	<path fill="#FFFFFF" d="M11.3,10.9c0.7-0.5,1.4-0.8,2.2-0.8c1.2,0,2,0.8,2.6,2.3l6.5,2l1.8-2.5L10.5,7.2l3.1-1.4L13.1,5L9.3,6.9
		l-6-2l1.4,3.5L11.3,10.9z"/>
	<path fill="#FFFFFF" d="M11,14c0,0.5,0.2,0.9,0.5,1.2c0.3,0.4,0.8,0.5,1.3,0.5c0.6,0,1.1-0.2,1.5-0.7l7.3,2.2l0.2-0.8l-7.2-2.2
		c0-0.3-0.1-0.5-0.2-0.7c-0.1-0.2-0.2-0.5-0.4-0.6c-0.2-0.2-0.4-0.3-0.6-0.5c-0.2-0.1-0.4-0.2-0.7-0.2c-0.8,0-1.4,0.3-1.7,1
		l-6.8-2.1L4,11.9l6.1,2h0.1l0,0L11,14z M12.1,13.5c0.2-0.2,0.3-0.2,0.6-0.2c0.2,0,0.4,0.1,0.6,0.2c0.2,0.2,0.2,0.3,0.2,0.6
		c0,0.2-0.1,0.4-0.2,0.6c-0.2,0.1-0.4,0.2-0.6,0.2c-0.2,0-0.4-0.1-0.6-0.2c-0.1-0.2-0.2-0.4-0.2-0.7C11.9,13.8,12,13.6,12.1,13.5z"
		/>
	<path fill="#FFFFFF" d="M1,18.6h10c0.6,0.5,1.1,0.8,1.7,0.8c0.5,0,1-0.3,1.4-0.8l0,0c0,0.1,0.1,0.2,0.4,0.4
		c0.4,0.2,0.7,0.3,0.9,0.3c0.5,0,0.9-0.3,1.3-0.8c0.5,0.5,0.9,0.8,1.4,0.8s0.9-0.3,1.3-0.8c0.5,0.6,1.1,0.9,1.8,0.9
		c0.6,0,1.1-0.3,1.6-0.8c0,0-7.2-2-21.7-5.9L1,18.6L1,18.6z"/>
</g>
</svg>
