<?xml version="1.0" encoding="utf-8"?>
<!-- Generator: Adobe Illustrator 18.0.0, SVG Export Plug-In . SVG Version: 6.00 Build 0)  -->
<!DOCTYPE svg PUBLIC "-//W3C//DTD SVG 1.1//EN" "http://www.w3.org/Graphics/SVG/1.1/DTD/svg11.dtd">
<svg version="1.1" id="Layer_1" xmlns="http://www.w3.org/2000/svg" xmlns:xlink="http://www.w3.org/1999/xlink" x="0px" y="0px"
	 viewBox="0 0 25 25" enable-background="new 0 0 25 25" xml:space="preserve">
<path fill="#0C51A3" d="M21.7,0H3.3C1.1,0,0,1.1,0,3.3v18.5C0,23.9,1.1,25,3.3,25h18.4c2.1,0,3.3-1.1,3.3-3.3V3.3
	C24.9,1.1,23.8,0,21.7,0z"/>
<g>
	<path fill="#FFFFFF" d="M16.4,9.5c0,0,0,0,0.1,0c0.9,0,1.6-0.7,1.6-1.7c0-0.9-0.7-1.6-1.7-1.6S14.7,7,14.8,7.8
		C14.7,8.9,15.3,9.5,16.4,9.5z"/>
	<path fill="#FFFFFF" d="M23.3,17c0-1.2-0.3-2.5-0.9-3.1c-0.5,1.2-4.5,1.9-6.6,2.2c-0.7,0-1.2,0.1-1.2,0.1l1.2-1.6l4.3-5.9l-0.6-0.5
		l-2,2.3l-1.7,0.7l-0.6,0.2c0,0,0.1-1.5-0.7-2.2C14.3,9,14,8.9,13.8,8.7c-1.6-0.5-3.6,0.6-3.6,0.6s-2.6,1.4-3.3,3.6
		c-0.3,1.7,0.7,2.7,1.4,3.5c-2.3-0.1-5.8-2.3-5.8-2.3c-0.5,0.6-1.2,1.6-1.2,3c0,0.5,0.2,0.8,0.3,1.2c0.3,0.3,0.6,0.4,1,0.4
		c0.5,0,0.8-0.1,0.9-0.6c0.4,0.5,0.8,0.6,1.4,0.6c0.5,0,0.8-0.1,1.3-0.5c0.2,0.3,0.6,0.6,1.2,0.6s0.9-0.2,1.4-0.7
		c0.3,0.5,0.6,0.6,1.2,0.6s1-0.1,1.3-0.6c0.3,0.5,0.9,0.7,1.4,0.7c0.6,0,0.9-0.2,1.3-0.7c0,0.1,0.1,0.1,0.2,0.2
		c0.3,0.2,0.6,0.3,1,0.3c0.3,0,0.7-0.1,1-0.3c0.1-0.1,0.1-0.1,0.2-0.2c0.2,0.5,0.6,0.7,1.3,0.7s1-0.2,1.4-0.7
		c0.3,0.5,0.8,0.6,1.3,0.6c0.7,0,1.2-0.1,1.3-0.6c0.2,0.5,0.5,0.6,0.9,0.6c0.3,0,0.6-0.1,0.8-0.3C23.7,18,23.9,17.5,23.3,17z
		 M14.4,12.6l1.2,0.5l0.8-0.6l0.7-0.3l-0.7,0.9l-0.9,1.5l-1-0.7l-0.8-0.5L14.4,12.6z M14.1,16.3h-0.6L12,14.8l0.9-0.8l1.5,0.7
		l0.7,0.3l-0.7,1L14.1,16.3z"/>
</g>
</svg>
