<svg style="position: absolute; width: 0; height: 0;" width="0" height="0" version="1.1" xmlns="http://www.w3.org/2000/svg" xmlns:xlink="http://www.w3.org/1999/xlink">
<defs>
<symbol id="icon-ada-restroom" viewBox="0 0 1024 1024">
	<title>ada-restroom</title>
	<path fill="rgb(104, 76, 43)" class="path1" d="M939.52 192h-855.040c-56.32 0-84.48 28.16-84.48 84.48v476.16c0 53.76 28.16 79.36 84.48 79.36h855.040c53.76 0 84.48-28.16 84.48-84.48v-471.040c-2.56-56.32-30.72-84.48-84.48-84.48z"></path>
	<path fill="rgb(255, 255, 255)" class="path2" d="M225.28 704c-15.36 10.24-30.72 15.36-48.64 15.36-23.040 0-43.52-7.68-58.88-25.6s-25.6-35.84-25.6-58.88c0-17.92 2.56-30.72 5.12-38.4 5.12-7.68 12.8-17.92 23.040-25.6l2.56-35.84c-20.48 2.56-35.84 15.36-48.64 33.28s-20.48 40.96-20.48 66.56c0 33.28 12.8 61.44 35.84 84.48s51.2 35.84 84.48 35.84c43.52 0 76.8-20.48 102.4-58.88l2.56-5.12-25.6-28.16c-2.56 17.92-12.8 30.72-28.16 40.96z"></path>
	<path fill="rgb(255, 255, 255)" class="path3" d="M381.44 688.64v0c-2.56 0-5.12 2.56-12.8 5.12s-12.8 2.56-15.36 2.56c-5.12 0-10.24-2.56-15.36-7.68-17.92-38.4-25.6-56.32-25.6-58.88-2.56-7.68-5.12-15.36-7.68-23.040s-5.12-15.36-7.68-25.6c-5.12-7.68-12.8-10.24-25.6-12.8-35.84 0-64-2.56-87.040-2.56l-5.12-17.92h76.8v-28.16h-71.68c0-20.48 0-38.4 0-51.2s0-23.040 0-28.16c10.24 0 17.92-2.56 23.040-10.24 7.68-7.68 10.24-15.36 10.24-25.6s-2.56-17.92-10.24-25.6c-7.68-2.56-15.36-7.68-25.6-7.68-7.68 0-12.8 2.56-20.48 7.68-7.68 7.68-12.8 12.8-12.8 15.36v204.8h117.76l64 125.44c40.96-15.36 61.44-23.040 61.44-25.6v0c-2.56-5.12-2.56-5.12-2.56-7.68-2.56-2.56-5.12-2.56-7.68-2.56z"></path>
	<path fill="rgb(255, 255, 255)" class="path4" d="M739.84 253.44v517.12h227.84v-424.96l-227.84-92.16zM821.76 335.36c5.12-5.12 15.36-10.24 25.6-10.24s17.92 2.56 25.6 10.24c5.12 10.24 7.68 17.92 7.68 28.16s-2.56 17.92-10.24 25.6c-5.12 5.12-15.36 7.68-23.040 7.68s-15.36-2.56-25.6-10.24c-5.12-5.12-10.24-15.36-10.24-25.6s2.56-15.36 10.24-25.6zM926.72 593.92h-15.36l-25.6-74.24v227.84h-25.6l-12.8-120.32-12.8 122.88h-20.48v-227.84l-25.6 76.8h-15.36v-194.56h153.6v189.44z"></path>
	<path fill="rgb(255, 255, 255)" class="path5" d="M445.44 770.56h227.84v-517.12l-227.84 87.040v430.080zM540.16 337.92c5.12-5.12 15.36-10.24 25.6-10.24s15.36 2.56 25.6 10.24c2.56 7.68 5.12 15.36 5.12 25.6s-2.56 15.36-10.24 20.48c-5.12 10.24-12.8 12.8-23.040 12.8s-17.92-2.56-23.040-12.8c-7.68-5.12-10.24-12.8-10.24-20.48 0-10.24 2.56-15.36 10.24-25.6zM527.36 407.040h76.8l56.32 140.8-17.92 7.68-48.64-79.36v17.92l53.76 122.88h-51.2l-15.36 125.44h-30.72l-15.36-122.88h-51.2l56.32-122.88-2.56-20.48-48.64 81.92-20.48-7.68 58.88-143.36z"></path>
</symbol>
<symbol id="icon-aquatic-center" viewBox="0 0 1024 1024">
	<title>aquatic-center</title>
	<path fill="rgb(12, 81, 163)" class="path1" d="M888.832 0h-753.664c-90.112 0-135.168 45.056-135.168 135.168v761.856c0 86.016 45.056 126.976 135.168 126.976h753.664c86.016 0 135.168-45.056 135.168-135.168v-753.664c-4.096-90.112-49.152-135.168-135.168-135.168z"></path>
	<path fill="rgb(255, 255, 255)" class="path2" d="M761.856 606.208l-258.048-450.56c-229.376 98.304-339.968 151.552-339.968 163.84 0 0 0 4.096 4.096 4.096h4.096c32.768 0 126.976-24.576 286.72-77.824l57.344 143.36-446.464 225.28c20.48 36.864 49.152 53.248 73.728 53.248s49.152-16.384 77.824-53.248c24.576 36.864 49.152 53.248 77.824 53.248 24.576 0 45.056-16.384 61.44-53.248 24.576 36.864 49.152 57.344 73.728 57.344 20.48 0 40.96-20.48 57.344-57.344 24.576 36.864 49.152 53.248 73.728 53.248s45.056-16.384 61.44-53.248c0 8.192 12.288 16.384 28.672 32.768 20.48 12.288 32.768 20.48 45.056 20.48 20.48-4.096 40.96-24.576 61.44-61.44zM901.12 782.336v-49.152c-20.48 61.44-45.056 90.112-65.536 90.112-12.288 0-28.672-16.384-49.152-45.056-16.384-24.576-24.576-36.864-24.576-40.96 0 0 0-4.096 4.096-4.096-20.48 53.248-40.96 81.92-61.44 81.92-8.192 0-24.576-8.192-45.056-28.672-16.384-20.48-28.672-36.864-28.672-45.056v0c-4.096 0-16.384 16.384-32.768 40.96s-24.576 36.864-28.672 36.864c-24.576 0-49.152-24.576-73.728-73.728-16.384 53.248-36.864 77.824-57.344 77.824-16.384 0-32.768-12.288-49.152-40.96-16.384-20.48-20.48-32.768-20.48-36.864-16.384 53.248-36.864 77.824-61.44 77.824s-53.248-24.576-77.824-77.824c-24.576 53.248-53.248 77.824-77.824 77.824-28.672 0-53.248-24.576-73.728-77.824v53.248c20.48 49.152 49.152 73.728 73.728 73.728s53.248-24.576 77.824-73.728c24.576 49.152 49.152 73.728 77.824 73.728 24.576 0 45.056-24.576 61.44-73.728 24.576 53.248 49.152 77.824 73.728 77.824 20.48 0 40.96-24.576 57.344-77.824 24.576 49.152 49.152 73.728 73.728 73.728s45.056-24.576 61.44-77.824c0 0 4.096 4.096 8.192 12.288s8.192 16.384 16.384 24.576c16.384 24.576 32.768 36.864 49.152 36.864 20.48 0 45.056-28.672 61.44-81.92-4.096 0-4.096 0-4.096 0 0 4.096 8.192 16.384 24.576 40.96 20.48 28.672 40.96 45.056 49.152 45.056 16.384-4.096 40.96-32.768 61.44-90.112zM954.368 409.6c0-16.384-4.096-28.672-8.192-40.96s-12.288-24.576-20.48-32.768c-8.192-8.192-20.48-16.384-32.768-24.576-12.288-4.096-24.576-8.192-36.864-8.192s-24.576 4.096-36.864 8.192c-12.288 4.096-20.48 12.288-28.672 24.576-8.192 8.192-16.384 20.48-20.48 32.768s-8.192 28.672-8.192 40.96c0 16.384 4.096 28.672 8.192 40.96s12.288 24.576 20.48 32.768c8.192 8.192 20.48 16.384 28.672 24.576 12.288 4.096 24.576 8.192 36.864 8.192 24.576 0 49.152-8.192 69.632-32.768 20.48-20.48 28.672-45.056 28.672-73.728z"></path>
</symbol>
<symbol id="icon-bike-rental" viewBox="0 0 1024 1024">
	<title>bike-rental</title>
	<path fill="rgb(104, 76, 43)" class="path1" d="M888.832 0h-753.664c-90.112 0-135.168 45.056-135.168 135.168v757.76c0 86.016 45.056 131.072 135.168 131.072h753.664c86.016 0 135.168-45.056 135.168-135.168v-753.664c-4.096-90.112-49.152-135.168-135.168-135.168z"></path>
	<path fill="rgb(255, 255, 255)" class="path2" d="M913.408 651.264c-32.768-32.768-73.728-49.152-118.784-49.152-24.576 0-49.152 4.096-77.824 16.384l-61.44-102.4v-114.688h-143.36v32.768h102.4v69.632h-229.376v-73.728h24.576v-28.672h-135.168v32.768h73.728v94.208l-40.96 77.824c-28.672-12.288-53.248-16.384-73.728-16.384-45.056 0-81.92 20.48-118.784 53.248s-53.248 73.728-53.248 114.688 20.48 81.92 53.248 114.688c36.864 36.864 73.728 53.248 118.784 53.248s81.92-20.48 118.784-53.248c36.864-36.864 53.248-73.728 53.248-118.784v-12.288l32.768-8.192c16.384 24.576 28.672 36.864 40.96 36.864h8.192c16.384 0 28.672-4.096 40.96-16.384 8.192-12.288 16.384-24.576 16.384-45.056l131.072-90.112 12.288 16.384c-45.056 36.864-65.536 81.92-65.536 135.168 0 49.152 16.384 90.112 49.152 122.88s73.728 49.152 122.88 49.152c45.056 0 86.016-16.384 118.784-49.152s49.152-73.728 49.152-122.88c0-45.056-16.384-86.016-49.152-118.784zM311.296 663.552c16.384 12.288 28.672 32.768 36.864 61.44l-81.92 24.576 45.056-86.016zM315.392 835.584c-24.576 20.48-53.248 32.768-86.016 32.768-16.384 0-28.672 0-45.056-8.192-12.288-4.096-24.576-12.288-36.864-24.576-8.192-8.192-16.384-20.48-24.576-36.864-4.096-12.288-8.192-28.672-8.192-45.056 0-32.768 8.192-57.344 32.768-81.92 24.576-20.48 53.248-32.768 86.016-32.768 16.384 0 32.768 4.096 49.152 12.288l-73.728 126.976 143.36-28.672c0 32.768-12.288 61.44-36.864 86.016zM393.216 716.8c-8.192-36.864-28.672-65.536-61.44-94.208l40.96-53.248 69.632 135.168-49.152 12.288zM491.52 749.568c-12.288 0-20.48-8.192-20.48-20.48s8.192-20.48 20.48-20.48 16.384 8.192 16.384 20.48-4.096 20.48-16.384 20.48zM524.288 688.128l-16.384-4.096c-8.192-4.096-16.384-4.096-20.48-4.096s-12.288 0-16.384 4.096l-73.728-147.456h229.376l32.768 53.248-135.168 98.304zM880.64 851.968c-24.576 20.48-53.248 32.768-86.016 32.768-16.384 0-28.672 0-45.056-8.192-12.288-4.096-24.576-12.288-36.864-24.576-8.192-8.192-16.384-20.48-24.576-36.864-4.096-12.288-8.192-28.672-8.192-45.056 0-32.768 12.288-61.44 36.864-86.016l69.632 106.496 24.576-16.384-65.536-110.592c16.384-8.192 36.864-12.288 53.248-12.288s28.672 0 45.056 8.192c12.288 4.096 24.576 12.288 36.864 24.576s20.48 24.576 28.672 36.864c4.096 12.288 8.192 28.672 8.192 45.056 0 32.768-12.288 61.44-36.864 86.016z"></path>
	<path fill="rgb(255, 255, 255)" class="path3" d="M61.44 122.88h65.536c12.288 0 24.576 0 28.672 0 8.192 0 12.288 4.096 20.48 8.192 8.192 8.192 16.384 16.384 20.48 24.576s4.096 20.48 4.096 32.768c0 28.672-8.192 45.056-28.672 57.344l40.96 94.208h-53.248l-28.672-90.112h-24.576v86.016h-49.152v-212.992h4.096zM106.496 155.648v61.44h20.48c16.384 0 28.672-12.288 28.672-32.768 0-8.192 0-12.288-4.096-16.384s-4.096-8.192-8.192-8.192-12.288-4.096-16.384-4.096h-20.48z"></path>
	<path fill="rgb(255, 255, 255)" class="path4" d="M233.472 122.88h131.072v36.864h-81.92v49.152h65.536v36.864h-65.536v53.248h81.92v36.864h-131.072v-212.992z"></path>
	<path fill="rgb(255, 255, 255)" class="path5" d="M389.12 122.88h49.152l53.248 135.168v-135.168h36.864v212.992h-40.96l-65.536-155.648v155.648h-32.768v-212.992z"></path>
	<path fill="rgb(255, 255, 255)" class="path6" d="M544.768 122.88h135.168v40.96h-45.056v176.128h-49.152v-176.128h-40.96v-40.96z"></path>
	<path fill="rgb(255, 255, 255)" class="path7" d="M729.088 122.88h49.152l61.44 212.992h-49.152l-12.288-45.056h-61.44l-12.288 45.056h-45.056l69.632-212.992zM770.048 253.952l-20.48-86.016-20.48 86.016h40.96z"></path>
	<path fill="rgb(255, 255, 255)" class="path8" d="M856.064 122.88h49.152v176.128h65.536v40.96h-114.688c0 0 0-217.088 0-217.088z"></path>
</symbol>
<symbol id="icon-boat-launch" viewBox="0 0 1024 1024">
	<title>boat-launch</title>
	<path fill="rgb(12, 81, 163)" class="path1" d="M888.832 0h-753.664c-90.112 0-135.168 45.056-135.168 135.168v753.664c0 86.016 45.056 135.168 135.168 135.168h753.664c86.016 0 135.168-45.056 135.168-135.168v-753.664c-4.096-90.112-49.152-135.168-135.168-135.168z"></path>
	<path fill="rgb(255, 255, 255)" class="path2" d="M462.848 446.464c28.672-20.48 57.344-32.768 90.112-32.768 49.152 0 81.92 32.768 106.496 94.208l266.24 81.92 73.728-102.4-569.344-192.512 126.976-57.344-20.48-32.768-155.648 77.824-245.76-81.92 57.344 143.36 270.336 102.4z"></path>
	<path fill="rgb(255, 255, 255)" class="path3" d="M450.56 573.44c0 20.48 8.192 36.864 20.48 49.152 12.288 16.384 32.768 20.48 53.248 20.48 24.576 0 45.056-8.192 61.44-28.672l299.008 90.112 8.192-32.768-294.912-90.112c0-12.288-4.096-20.48-8.192-28.672s-8.192-20.48-16.384-24.576c-8.192-8.192-16.384-12.288-24.576-20.48-8.192-4.096-16.384-8.192-28.672-8.192-32.768 0-57.344 12.288-69.632 40.96l-278.528-86.016-8.192 32.768 249.856 81.92h4.096l32.768 4.096zM495.616 552.96c8.192-8.192 12.288-8.192 24.576-8.192 8.192 0 16.384 4.096 24.576 8.192 8.192 8.192 8.192 12.288 8.192 24.576 0 8.192-4.096 16.384-8.192 24.576-8.192 4.096-16.384 8.192-24.576 8.192s-16.384-4.096-24.576-8.192c-4.096-8.192-8.192-16.384-8.192-28.672 0-8.192 4.096-16.384 8.192-20.48z"></path>
	<path fill="rgb(255, 255, 255)" class="path4" d="M40.96 761.856h409.6c24.576 20.48 45.056 32.768 69.632 32.768 20.48 0 40.96-12.288 57.344-32.768v0c0 4.096 4.096 8.192 16.384 16.384 16.384 8.192 28.672 12.288 36.864 12.288 20.48 0 36.864-12.288 53.248-32.768 20.48 20.48 36.864 32.768 57.344 32.768s36.864-12.288 53.248-32.768c20.48 24.576 45.056 36.864 73.728 36.864 24.576 0 45.056-12.288 65.536-32.768 0 0-294.912-81.92-888.832-241.664l-4.096 241.664z"></path>
</symbol>
<symbol id="icon-camp" viewBox="0 0 1024 1024">
	<title>camp</title>
	<path fill="rgb(146, 41, 144)" class="path1" d="M888.832 0h-753.664c-90.112 0-135.168 45.056-135.168 135.168v757.76c0 86.016 45.056 131.072 135.168 131.072h753.664c86.016 0 135.168-45.056 135.168-135.168v-753.664c-4.096-90.112-49.152-135.168-135.168-135.168z"></path>
	<path fill="rgb(255, 255, 255)" class="path2" d="M929.792 851.968v-110.592h-139.264l-282.624-573.44-266.24 573.44h-147.456v110.592h835.584zM634.88 745.472h-225.28l98.304-299.008 126.976 299.008z"></path>
</symbol>
<symbol id="icon-canoe-landing" viewBox="0 0 1024 1024">
	<title>canoe-landing</title>
	<path fill="rgb(12, 81, 163)" class="path1" d="M888.832 0h-753.664c-90.112 0-135.168 45.056-135.168 135.168v757.76c0 86.016 45.056 131.072 135.168 131.072h753.664c86.016 0 135.168-45.056 135.168-135.168v-753.664c-4.096-90.112-49.152-135.168-135.168-135.168z"></path>
	<path fill="rgb(255, 255, 255)" class="path2" d="M671.744 389.12c0 0 0 0 4.096 0 36.864 0 65.536-28.672 65.536-69.632 0-36.864-28.672-65.536-69.632-65.536s-69.632 32.768-65.536 65.536c-4.096 45.056 20.48 69.632 65.536 69.632z"></path>
	<path fill="rgb(255, 255, 255)" class="path3" d="M954.368 696.32c0-49.152-12.288-102.4-36.864-126.976-20.48 49.152-184.32 77.824-270.336 90.112-28.672 0-49.152 4.096-49.152 4.096l49.152-65.536 176.128-241.664-24.576-20.48-81.92 94.208-69.632 28.672-24.576 8.192c0 0 4.096-61.44-28.672-90.112-8.192-8.192-20.48-12.288-28.672-20.48-65.536-20.48-147.456 24.576-147.456 24.576s-106.496 57.344-135.168 147.456c-12.288 69.632 28.672 110.592 57.344 143.36-94.208-4.096-237.568-94.208-237.568-94.208-20.48 24.576-49.152 65.536-49.152 122.88 0 20.48 8.192 32.768 12.288 49.152 12.288 12.288 24.576 16.384 40.96 16.384 20.48 0 32.768-4.096 36.864-24.576 16.384 20.48 32.768 24.576 57.344 24.576 20.48 0 32.768-4.096 53.248-20.48 8.192 12.288 24.576 24.576 49.152 24.576s36.864-8.192 57.344-28.672c12.288 20.48 24.576 24.576 49.152 24.576s40.96-4.096 53.248-24.576c12.288 20.48 36.864 28.672 57.344 28.672 24.576 0 36.864-8.192 53.248-28.672 0 4.096 4.096 4.096 8.192 8.192 12.288 8.192 24.576 12.288 40.96 12.288 12.288 0 28.672-4.096 40.96-12.288 4.096-4.096 4.096-4.096 8.192-8.192 8.192 20.48 24.576 28.672 53.248 28.672s40.96-8.192 57.344-28.672c12.288 20.48 32.768 24.576 53.248 24.576 28.672 0 49.152-4.096 53.248-24.576 8.192 20.48 20.48 24.576 36.864 24.576 12.288 0 24.576-4.096 32.768-12.288 12.288-16.384 20.48-36.864-4.096-57.344zM589.824 516.096l49.152 20.48 32.768-24.576 28.672-12.288-28.672 36.864-36.864 61.44-40.96-28.672-32.768-20.48 28.672-32.768zM577.536 667.648h-24.576l-61.44-61.44 36.864-32.768 61.44 28.672 28.672 12.288-28.672 40.96-12.288 12.288z"></path>
</symbol>
<symbol id="icon-disc-golf" viewBox="0 0 1024 1024">
	<title>disc-golf</title>
	<path fill="rgb(46, 81, 34)" class="path1" d="M888.832 0h-753.664c-90.112 0-135.168 45.056-135.168 135.168v761.856c0 86.016 45.056 126.976 135.168 126.976h753.664c86.016 0 135.168-45.056 135.168-135.168v-753.664c-4.096-90.112-49.152-135.168-135.168-135.168z"></path>
	<path fill="rgb(255, 255, 255)" class="path2" d="M602.112 708.608c94.208-61.44 159.744-237.568 159.744-450.56v0-24.576h-192.512c24.576-16.384 40.96-40.96 40.96-69.632 0-45.056-36.864-81.92-81.92-81.92s-81.92 36.864-81.92 81.92c0 28.672 16.384 57.344 40.96 69.632h-196.608v16.384c0 0 0 0 0 4.096v4.096c0 212.992 65.536 389.12 159.744 450.56h-262.144l28.672 143.36h282.624v106.496h49.152v-106.496h270.336l32.768-143.36h-249.856zM315.392 258.048h36.864c0 176.128 32.768 327.68 81.92 409.6-69.632-73.728-118.784-229.376-118.784-409.6zM376.832 258.048h40.96c0 139.264 16.384 323.584 53.248 417.792-49.152-65.536-90.112-217.088-94.208-417.792zM237.568 827.392l-20.48-94.208h61.44l20.48 94.208h-61.44zM323.584 827.392l-20.48-94.208h81.92l20.48 94.208h-81.92zM499.712 827.392h-69.632l-20.48-94.208h90.112v94.208zM499.712 684.032c-28.672-61.44-53.248-212.992-57.344-425.984h57.344v425.984zM737.28 258.048c0 180.224-49.152 335.872-118.784 405.504 49.152-81.92 81.92-233.472 81.92-405.504 0 0 36.864 0 36.864 0zM671.744 258.048c0 204.8-45.056 360.448-98.304 421.888 36.864-90.112 53.248-278.528 53.248-421.888h45.056zM548.864 258.048h53.248c0 208.896-28.672 364.544-57.344 421.888l4.096-421.888zM614.4 827.392h-65.536v-94.208h86.016l-20.48 94.208zM716.8 827.392h-77.824l20.48-94.208h77.824l-20.48 94.208zM802.816 827.392h-61.44l20.48-94.208h61.44l-20.48 94.208z"></path>
</symbol>
<symbol id="icon-facility" viewBox="0 0 1024 1024">
	<title>facility</title>
	<path fill="rgb(104, 76, 43)" class="path1" d="M888.832 0h-753.664c-90.112 0-135.168 45.056-135.168 135.168v757.76c0 86.016 45.056 131.072 135.168 131.072h753.664c86.016 0 135.168-45.056 135.168-135.168v-753.664c-4.096-90.112-49.152-135.168-135.168-135.168z"></path>
	<path fill="rgb(255, 255, 255)" class="path2" d="M831.488 888.832h-114.688v-229.376h94.208l-266.24-323.584v-77.824l143.36 57.344v-143.36c0-4.096-65.536-40.96-196.608-110.592v274.432l-270.336 327.68h94.208v229.376h-118.784v61.44h634.88v-65.536z"></path>
</symbol>
<symbol id="icon-golf-course-driving-range" viewBox="0 0 1024 1024">
	<title>golf-course-driving-range</title>
	<path fill="rgb(46, 81, 34)" class="path1" d="M888.832 0h-753.664c-90.112 0-135.168 45.056-135.168 135.168v761.856c0 86.016 45.056 126.976 135.168 126.976h753.664c86.016 0 135.168-45.056 135.168-135.168v-753.664c-4.096-90.112-49.152-135.168-135.168-135.168z"></path>
	<path fill="rgb(255, 255, 255)" class="path2" d="M806.912 188.416c-28.672-8.192-24.576-61.44-24.576-61.44h-471.040l4.096 155.648h118.784v-4.096c-65.536-20.48-49.152-122.88 24.576-126.976 40.96 0 73.728 32.768 65.536 77.824l-8.192 16.384-8.192 12.288-16.384 16.384-12.288 4.096v4.096h28.672l8.192 4.096 4.096 8.192 8.192 4.096 4.096 4.096v24.576l-147.456 225.28 135.168 397.312h-69.632l-135.168-331.776v331.776h-65.536v-397.312l135.168-200.704h-135.168v-217.088l8.192-20.48 4.096-8.192 8.192-12.288 16.384-16.384 12.288-4.096h12.288v12.288c0 0 114.688 0 233.472 0s245.76 0 258.048 0c8.192 0 40.96 4.096 45.056 28.672 8.192 4.096 16.384 86.016-40.96 73.728z"></path>
</symbol>
<symbol id="icon-model-airplane" viewBox="0 0 1024 1024">
	<title>model-airplane</title>
	<path fill="rgb(104, 76, 43)" class="path1" d="M888.832 0h-753.664c-90.112 0-135.168 45.056-135.168 135.168v757.76c0 86.016 45.056 131.072 135.168 131.072h753.664c86.016 0 135.168-45.056 135.168-135.168v-753.664c-4.096-90.112-49.152-135.168-135.168-135.168z"></path>
	<path fill="rgb(255, 255, 255)" class="path2" d="M688.128 192.512c0 0 0-4.096 4.096 0s114.688 57.344 118.784 57.344c4.096 0 12.288 8.192 4.096 20.48-12.288 20.48-32.768 0-32.768 0s-81.92-65.536-94.208-69.632c-4.096 0 0-8.192 0-8.192zM643.072 143.36c20.48 0 28.672 12.288 28.672 28.672 0 20.48-12.288 28.672-28.672 28.672-20.48 0-28.672-8.192-28.672-28.672s12.288-28.672 28.672-28.672zM475.136 69.632c12.288-20.48 32.768 0 32.768 0s81.92 65.536 94.208 69.632c4.096 4.096 0 4.096 0 4.096s0 4.096-4.096 0-114.688-57.344-118.784-57.344c-4.096 4.096-16.384-4.096-4.096-16.384zM114.688 192.512c8.192-12.288 45.056 12.288 45.056 12.288s208.896 94.208 237.568 106.496c12.288 8.192 4.096 12.288 4.096 12.288s-4.096 8.192-16.384 4.096c-8.192-4.096-241.664-98.304-245.76-98.304-8.192-8.192-40.96-16.384-24.576-36.864zM98.304 270.336c8.192 4.096 212.992 126.976 212.992 131.072 4.096 4.096 32.768 20.48 28.672 36.864-8.192 20.48-49.152-4.096-49.152-4.096s-180.224-126.976-208.896-139.264c-4.096-4.096-4.096-20.48-4.096-20.48s8.192-8.192 20.48-4.096zM57.344 696.32l4.096-20.48c20.48-20.48 81.92 8.192 110.592 20.48l-20.48 24.576c-36.864-20.48-61.44-32.768-65.536-28.672 0 4.096 20.48 20.48 57.344 40.96l-12.288 24.576c-16.384-4.096-69.632-36.864-73.728-61.44zM102.4 872.448c-4.096-4.096-4.096-12.288-4.096-12.288l401.408-663.552c0 0 8.192-20.48 20.48-20.48 4.096-4.096 24.576 4.096 24.576 4.096l57.344 32.768 61.44 36.864c0 0 20.48 12.288 20.48 28.672-4.096 12.288-28.672 40.96-28.672 40.96l-536.576 552.96c0 0-4.096 8.192-16.384 0zM327.68 847.872c-20.48 24.576-81.92-8.192-110.592-24.576l20.48-24.576c36.864 20.48 65.536 32.768 65.536 28.672s-20.48-20.48-57.344-40.96l20.48-24.576c8.192 4.096 65.536 36.864 65.536 65.536l-4.096 20.48zM606.208 897.024c8.192-98.304 65.536-184.32 147.456-233.472-4.096 0-4.096 0-8.192 0s-28.672-12.288-69.632-28.672l-65.536 65.536c-36.864 49.152-65.536 94.208-81.92 176.128l-36.864-8.192c24.576-102.4 86.016-188.416 147.456-245.76l8.192 4.096c-61.44-28.672-131.072-61.44-139.264-61.44-4.096-4.096-32.768-12.288-28.672-32.768s40.96 0 40.96 0 65.536 36.864 139.264 65.536c20.48-12.288 36.864-28.672 61.44-40.96-57.344-40.96-139.264-102.4-151.552-114.688-8.192-8.192 0-20.48 0-20.48s0 0 12.288 4.096c8.192 4.096 102.4 65.536 167.936 110.592l4.096 4.096c49.152-20.48 114.688-28.672 167.936-32.768l4.096 36.864c-49.152 0-90.112 8.192-126.976 24.576l8.192 4.096c4.096 4.096 32.768 24.576 20.48 36.864-20.48 8.192-40.96-20.48-40.96-20.48s-4.096-4.096-20.48-12.288l-28.672 12.288c-20.48 8.192-8.192 4.096-28.672 20.48 0 0 49.152 24.576 57.344 28.672s8.192 8.192 12.288 12.288c40.96-24.576 90.112-36.864 143.36-36.864 4.096 0 12.288 0 20.48 0v40.96c-4.096-4.096-12.288-4.096-24.576-4.096-143.36 0-253.952 110.592-270.336 245.76h-40.96zM749.568 925.696l-28.672-4.096c12.288-110.592 102.4-200.704 217.088-200.704 4.096 0 8.192 0 12.288 0l4.096 28.672c-4.096 0-8.192 0-20.48 0-94.208 0-180.224 73.728-184.32 176.128zM962.56 835.584c-65.536 0-114.688 53.248-122.88 114.688h-20.48c4.096-69.632 65.536-126.976 143.36-126.976h8.192l4.096 20.48h-12.288c0 0 0-8.192 0-8.192z"></path>
</symbol>
<symbol id="icon-nature-center" viewBox="0 0 1024 1024">
	<title>nature-center</title>
	<path fill="rgb(237, 33, 36)" class="path1" d="M888.832 0h-753.664c-90.112 0-135.168 45.056-135.168 135.168v761.856c0 86.016 45.056 126.976 135.168 126.976h753.664c86.016 0 135.168-45.056 135.168-135.168v-753.664c-4.096-90.112-49.152-135.168-135.168-135.168z"></path>
	<path fill="rgb(255, 255, 255)" class="path2" d="M745.472 389.12c-12.288 24.576-36.864 57.344-45.056 61.44-12.288 12.288-69.632 49.152-81.92 57.344-8.192 8.192-24.576 28.672-20.48 40.96 0 12.288 12.288 8.192 28.672 8.192s61.44-8.192 69.632 8.192c8.192 12.288-8.192 36.864-16.384 40.96-12.288 12.288-61.44 36.864-77.824 45.056-12.288 8.192-24.576 20.48-20.48 32.768s12.288 8.192 16.384 12.288 20.48 4.096 20.48 12.288c0 8.192-12.288 24.576-24.576 32.768-12.288 12.288-40.96 61.44-45.056 69.632 0 8.192-20.48 49.152-20.48 57.344 0 4.096-12.288 36.864-8.192 53.248 0 12.288 4.096 40.96 8.192 45.056 4.096 8.192 12.288 12.288-8.192 12.288 0 0-4.096 4.096-8.192 8.192-4.096 0-12.288-8.192-8.192-36.864s8.192-36.864 0-53.248c-8.192-20.48-36.864-77.824-40.96-86.016-8.192-12.288-40.96-49.152-49.152-57.344-12.288-8.192-24.576-24.576-8.192-32.768 20.48-12.288 28.672-8.192 28.672-16.384-4.096-8.192-20.48-24.576-36.864-32.768-16.384-12.288-53.248-36.864-61.44-49.152-12.288-12.288-12.288-28.672-8.192-36.864s20.48-12.288 40.96-12.288c20.48 8.192 49.152 24.576 53.248 16.384 4.096-12.288-8.192-32.768-16.384-40.96-12.288-12.288-53.248-40.96-65.536-49.152-12.288-12.288-45.056-53.248-49.152-61.44s-32.768-57.344-20.48-73.728c16.384-16.384 40.96-8.192 45.056-4.096 12.288 4.096 61.44 40.96 73.728 45.056 4.096 4.096 20.48 8.192 24.576 4.096 0-4.096 4.096-12.288-12.288-24.576s-61.44-40.96-69.632-53.248c-12.288-12.288-49.152-61.44-53.248-81.92 0-12.288 0-28.672 8.192-32.768 8.192-8.192 40.96-4.096 57.344 4.096 16.384 12.288 53.248 28.672 61.44 32.768 12.288 4.096 20.48 8.192 24.576-4.096 0-12.288-4.096-36.864-12.288-57.344s-28.672-61.44-28.672-73.728c0-12.288-4.096-20.48 4.096-24.576 8.192-8.192 16.384-4.096 24.576 0 12.288 4.096 20.48 4.096 24.576-12.288 8.192-12.288 8.192-40.96 24.576-40.96 8.192 0 12.288 4.096 12.288 12.288 8.192 12.288 12.288 40.96 28.672 40.96 4.096 0 4.096 0 4.096 0 12.288-4.096 28.672-20.48 36.864-16.384s16.384 12.288 16.384 36.864c4.096 28.672-12.288 69.632-12.288 86.016-4.096 12.288-12.288 36.864-4.096 45.056 12.288 8.192 32.768-16.384 36.864-28.672 8.192-12.288 40.96-45.056 61.44-49.152 16.384-4.096 24.576-4.096 32.768 0s12.288 28.672 8.192 45.056-20.48 61.44-32.768 73.728c-12.288 16.384-36.864 53.248-40.96 61.44-8.192 12.288-16.384 32.768-12.288 36.864 8.192 8.192 24.576 0 36.864-12.288 16.384-12.288 57.344-36.864 69.632-40.96s36.864-8.192 45.056 0c4.096 8.192 4.096 32.768-8.192 57.344z"></path>
</symbol>
<symbol id="icon-off-leash-dog-area" viewBox="0 0 1024 1024">
	<title>off-leash-dog-area</title>
	<path fill="rgb(241, 88, 34)" class="path1" d="M888.832 0h-753.664c-90.112 0-135.168 45.056-135.168 135.168v757.76c0 90.112 45.056 131.072 135.168 131.072h753.664c86.016 0 135.168-45.056 135.168-135.168v-753.664c-4.096-90.112-49.152-135.168-135.168-135.168z"></path>
	<path fill="rgb(255, 255, 255)" class="path2" d="M630.784 434.176l20.48-4.096h12.288l8.192 8.192c4.096 8.192 12.288 16.384 24.576 20.48 20.48 8.192 36.864 8.192 49.152-4.096l4.096-4.096c8.192-12.288 16.384-20.48 8.192-28.672h-4.096c-8.192-4.096-12.288-8.192-12.288-8.192-4.096-4.096-12.288-8.192-12.288-16.384l-8.192-16.384c-4.096-16.384-12.288-28.672-16.384-40.96l4.096-8.192 8.192-8.192c8.192-12.288 8.192-24.576 4.096-32.768l-4.096-4.096c-8.192-4.096-16.384 0-24.576 8.192l-12.288 12.288-65.536 32.768-32.768 24.576c4.096 16.384 12.288 36.864 24.576 49.152 12.288 20.48 12.288 20.48 24.576 20.48z"></path>
	<path fill="rgb(255, 255, 255)" class="path3" d="M659.456 679.936c-12.288-4.096-28.672-28.672-36.864-45.056l-12.288-49.152-20.48-28.672-16.384 8.192-16.384 4.096v4.096c4.096 12.288 12.288 32.768 24.576 61.44l8.192 12.288c4.096 12.288 4.096 16.384 8.192 20.48 12.288 16.384 20.48 40.96 45.056 36.864 4.096 0 8.192 0 12.288-4.096 8.192-4.096 8.192-8.192 8.192-16.384 4.096 4.096 4.096-4.096-4.096-4.096z"></path>
	<path fill="rgb(255, 255, 255)" class="path4" d="M761.856 626.688l-24.576-20.48c-24.576-16.384-36.864-24.576-61.44-53.248l-12.288-12.288c-36.864-36.864-40.96-61.44-45.056-81.92-12.288-4.096-12.288-4.096-28.672-24.576-12.288-16.384-24.576-32.768-28.672-53.248 0 0-49.152 12.288-65.536 16.384l-32.768 8.192h-73.728l-73.728-12.288-57.344-8.192c-20.48 0-40.96-8.192-61.44-12.288-8.192-4.096-40.96-20.48-49.152-12.288h-16.384c8.192 40.96 57.344 45.056 90.112 53.248 4.096 0 8.192 4.096 12.288 8.192-16.384 12.288-49.152 45.056-61.44 69.632l-12.288 32.768-8.192 32.768c-4.096 24.576-28.672 20.48-28.672 20.48-12.288 20.48-49.152 40.96-49.152 49.152-4.096 28.672-4.096 32.768 0 45.056s36.864 20.48 36.864 4.096c0-12.288 12.288-45.056 20.48-53.248l20.48-8.192c4.096-4.096 36.864-12.288 36.864-12.288l28.672-28.672-8.192-24.576-4.096-28.672v-28.672l8.192-4.096v12.288l4.096 32.768 16.384 49.152-28.672 65.536-8.192 12.288v4.096l40.96 65.536 4.096 8.192h32.768l4.096-4.096v-8.192l-4.096-8.192-20.48-12.288-20.48-40.96v-8.192l24.576-24.576 32.768-24.576 28.672-20.48 16.384-28.672v-28.672l8.192-8.192c28.672 12.288 159.744 57.344 217.088 45.056l32.768-16.384 20.48 32.768 98.304 53.248c16.384 12.288 20.48 20.48 24.576 32.768s8.192 16.384 20.48 20.48c8.192 0 20.48 4.096 28.672 0s12.288-20.48 4.096-24.576c-8.192-4.096-24.576-16.384-28.672-36.864z"></path>
	<path fill="rgb(255, 255, 255)" class="path5" d="M958.464 667.648c0 20.359-16.505 36.864-36.864 36.864s-36.864-16.505-36.864-36.864c0-20.359 16.505-36.864 36.864-36.864s36.864 16.505 36.864 36.864z"></path>
</symbol>
<symbol id="icon-parking" viewBox="0 0 1024 1024">
	<title>parking</title>
	<path fill="rgb(170,170,170)" class="path1" d="M512 0c-282.624 0-512 229.376-512 512s229.376 512 512 512 512-229.376 512-512-229.376-512-512-512z"></path>
	<path fill="rgb(255, 255, 255)" class="path2" d="M741.376 229.376c-49.152-40.96-122.88-57.344-225.28-57.344s-172.032 8.192-225.28 16.384v729.088h163.84v-266.24c16.384 4.096 36.864 4.096 57.344 4.096 98.304 0 184.32-24.576 241.664-77.824 45.056-40.96 69.632-102.4 69.632-176.128s-32.768-135.168-81.92-172.032zM512 524.288c-24.576 0-40.96 0-57.344-4.096v-217.088c12.288-4.096 36.864-4.096 69.632-4.096 86.016 0 131.072 40.96 131.072 110.592s-53.248 114.688-143.36 114.688z"></path>
</symbol>
<symbol id="icon-picnic-grove" viewBox="0 0 1024 1024">
	<title>picnic-grove</title>
	<path fill="rgb(104, 76, 43)" class="path1" d="M888.832 0h-753.664c-90.112 0-135.168 45.056-135.168 135.168v757.76c0 90.112 45.056 131.072 135.168 131.072h753.664c86.016 0 135.168-45.056 135.168-135.168v-753.664c-4.096-90.112-49.152-135.168-135.168-135.168z"></path>
	<path fill="rgb(255, 255, 255)" class="path2" d="M221.184 425.984v-40.96h-155.648v36.864c0 4.096 155.648 4.096 155.648 4.096zM954.368 544.768v-65.536h-221.184l-57.344-204.8h106.496v-73.728h-532.48v69.632h110.592l-65.536 204.8h-229.376v65.536h217.088l-69.632 278.528h81.92l81.92-274.432h282.624l90.112 274.432h77.824l-69.632-274.432h196.608zM638.976 483.328h-241.664l49.152-204.8h139.264l53.248 204.8zM958.464 434.176v-40.96h-159.744v36.864h159.744v4.096z"></path>
</symbol>
<symbol id="icon-picnic-grove-shelter" viewBox="0 0 1024 1024">
	<title>picnic-grove-shelter</title>
	<path fill="rgb(104, 76, 43)" class="path1" d="M888.832 0h-753.664c-90.112 0-135.168 45.056-135.168 135.168v761.856c0 86.016 45.056 126.976 135.168 126.976h753.664c86.016 0 135.168-45.056 135.168-135.168v-753.664c-4.096-90.112-49.152-135.168-135.168-135.168z"></path>
	<path fill="rgb(255, 255, 255)" class="path2" d="M946.176 180.224c-16.384-36.864-24.576-57.344-24.576-57.344l-843.776 319.488c8.192 20.48 12.288 32.768 16.384 45.056s8.192 16.384 8.192 20.48l94.208-40.96v434.176h671.744v-57.344h-602.112v-401.408l679.936-262.144zM856.064 651.264v-36.864h-126.976l-32.768-114.688h61.44v-36.864h-303.104v36.864h61.44l-32.768 114.688h-126.976v36.864h122.88l-40.96 155.648h45.056l49.152-155.648h159.744l49.152 155.648h45.056l-40.96-155.648h110.592zM442.368 585.728v-32.768h-86.016v32.768h86.016zM679.936 614.4h-135.168l28.672-114.688h77.824l28.672 114.688zM860.16 589.824v-32.768h-90.112v32.768h90.112z"></path>
</symbol>
<symbol id="icon-sledding" viewBox="0 0 1024 1024">
	<title>sledding</title>
	<path fill="rgb(104, 76, 43)" class="path1" d="M888.832 0h-753.664c-90.112 0-135.168 45.056-135.168 135.168v761.856c0 86.016 45.056 126.976 135.168 126.976h753.664c86.016 0 135.168-45.056 135.168-135.168v-753.664c-4.096-90.112-49.152-135.168-135.168-135.168z"></path>
	<path fill="rgb(255, 255, 255)" class="path2" d="M827.392 761.856c0-4.096 0-4.096-4.096-8.192-16.384-16.384-32.768-28.672-45.056-40.96s-20.48-20.48-24.576-24.576c20.48-36.864 32.768-69.632 32.768-98.304 0-20.48-8.192-36.864-20.48-49.152-8.192-8.192-28.672-8.192-65.536-8.192h-45.056c-24.576 0-40.96 0-40.96 0-20.48 0-32.768 0-36.864-4.096-57.344-45.056-98.304-69.632-126.976-81.92-8.192-4.096-24.576-8.192-45.056-8.192-8.192 0-12.288 0-20.48 0s-16.384 0-24.576 4.096c-4.096-20.48-4.096-40.96-8.192-65.536-4.096-20.48-8.192-45.056-12.288-73.728 0-8.192-4.096-20.48-8.192-32.768-4.096-8.192-8.192-20.48-12.288-32.768-12.288-24.576-20.48-40.96-24.576-36.864h-53.248c-24.576 0-32.768 4.096-32.768 16.384 0 16.384 24.576 28.672 69.632 40.96 4.096 36.864 8.192 65.536 12.288 81.92 0 20.48 0 28.672 0 28.672l12.288 122.88-32.768-16.384-12.288 4.096v16.384c16.384 8.192 28.672 16.384 36.864 20.48s12.288 8.192 16.384 8.192v0c-4.096 0-28.672 16.384-69.632 45.056l-102.4-45.056-28.672-4.096 4.096 20.48 491.52 262.144c36.864 20.48 69.632 28.672 98.304 28.672 16.384 0 45.056-8.192 77.824-28.672 28.672-16.384 45.056-32.768 45.056-40.96zM770.048 765.952c-4.096 8.192-16.384 16.384-32.768 24.576-12.288 4.096-20.48 8.192-28.672 8.192-8.192 4.096-16.384 4.096-24.576 4.096h-8.192c-8.192 0-16.384 0-20.48-4.096l-389.12-208.896c4.096-12.288 12.288-20.48 24.576-32.768 4.096-4.096 20.48-8.192 45.056-20.48l434.176 229.376zM679.936 663.552c0 8.192-8.192 16.384-20.48 16.384-4.096 0-4.096 0-12.288 0-28.672-12.288-40.96-20.48-45.056-28.672 12.288 0 20.48-4.096 28.672-4.096 4.096 0 8.192 0 8.192 0 8.192 0 16.384 4.096 28.672 8.192 8.192 0 12.288 4.096 12.288 8.192zM946.176 565.248v0c-4.096-16.384-8.192-32.768-20.48-45.056s-28.672-20.48-45.056-20.48-32.768 8.192-45.056 20.48-20.48 28.672-20.48 49.152c0 16.384 8.192 32.768 20.48 45.056s28.672 20.48 45.056 20.48 32.768-8.192 45.056-20.48c12.288-16.384 16.384-32.768 20.48-49.152z"></path>
</symbol>
<symbol id="icon-snowmobiling" viewBox="0 0 1024 1024">
	<title>snowmobiling</title>
	<path fill="rgb(104, 76, 43)" class="path1" d="M888.832 0h-753.664c-90.112 0-135.168 45.056-135.168 135.168v761.856c0 86.016 45.056 126.976 135.168 126.976h753.664c86.016 0 135.168-45.056 135.168-135.168v-753.664c-4.096-90.112-49.152-135.168-135.168-135.168z"></path>
	<path fill="rgb(255, 255, 255)" class="path2" d="M958.464 815.104c0-8.192 0-12.288 0-16.384-24.576 16.384-45.056 24.576-57.344 24.576h-118.784l-4.096-45.056c86.016-28.672 131.072-53.248 131.072-73.728v-45.056l4.096-40.96c0-8.192 0-12.288-4.096-16.384l-86.016-53.248c-57.344-32.768-86.016-53.248-86.016-57.344-4.096-12.288-28.672-32.768-73.728-65.536l-16.384 73.728c-73.728-40.96-110.592-69.632-114.688-77.824 0 0 0-16.384 0-49.152 0-45.056-12.288-73.728-32.768-86.016 0-4.096 0-8.192 0-12.288v-24.576c0-12.288 8.192-20.48 20.48-24.576s28.672-8.192 45.056-8.192c-24.576-53.248-53.248-77.824-90.112-77.824-8.192 0-20.48 4.096-28.672 8.192s-16.384 12.288-24.576 20.48c-8.192 12.288-12.288 20.48-16.384 28.672-4.096 12.288-8.192 20.48-8.192 32.768 0 4.096 0 4.096 0 4.096v0c8.192 32.768 20.48 49.152 40.96 57.344l-16.384 4.096c-24.576 4.096-40.96 40.96-53.248 98.304 0 28.672-4.096 57.344-8.192 90.112-4.096 28.672-4.096 61.44-4.096 94.208 0 8.192 0 12.288 0 20.48 0 4.096 0 12.288 0 20.48h-151.552c-12.288-45.056-40.96-69.632-77.824-73.728v110.592c-40.96 57.344-61.44 94.208-61.44 110.592 0 8.192 4.096 12.288 12.288 12.288h647.168v53.248h-159.744v45.056h356.352c24.576-16.384 36.864-36.864 36.864-61.44zM446.464 839.68h-356.352c4.096 20.48 12.288 36.864 24.576 40.96 4.096 0 16.384 4.096 32.768 4.096h131.072c20.48 0 36.864-4.096 53.248-4.096s32.768 0 49.152 0 24.576 0 28.672 0v0c16.384 0 28.672-16.384 36.864-40.96zM622.592 561.152c-4.096 4.096-8.192 12.288-16.384 16.384-8.192 12.288-16.384 16.384-16.384 20.48v0c0 4.096 0 8.192 0 12.288s0 4.096 0 8.192c0 12.288-4.096 16.384-16.384 16.384v0c-45.056-8.192-69.632-28.672-69.632-57.344 0-8.192 0-16.384 0-24.576s4.096-20.48 4.096-32.768c32.768 4.096 57.344 8.192 77.824 16.384 28.672 4.096 36.864 16.384 36.864 24.576z"></path>
</symbol>
<symbol id="icon-waterbody" viewBox="0 0 1024 1024">
	<title>waterbody</title>
	<path fill="rgb(12, 81, 163)" class="path1" d="M888.832 0h-753.664c-90.112 0-135.168 45.056-135.168 135.168v761.856c0 86.016 45.056 126.976 135.168 126.976h753.664c86.016 0 135.168-45.056 135.168-135.168v-753.664c-4.096-90.112-49.152-135.168-135.168-135.168z"></path>
	<path fill="rgb(255, 255, 255)" class="path2" d="M892.928 217.088l-20.48 24.576c-16.384 16.384-24.576 28.672-53.248 28.672s-36.864-12.288-53.248-28.672l-24.576-24.576-24.576 24.576c-16.384 16.384-24.576 28.672-53.248 28.672s-36.864-12.288-53.248-28.672l-24.576-24.576-24.576 24.576c-16.384 16.384-24.576 28.672-53.248 28.672s-36.864-12.288-53.248-28.672l-24.576-24.576-20.48 24.576c-12.288 16.384-24.576 28.672-53.248 28.672s-36.864-12.288-53.248-28.672l-20.48-28.672-24.576 28.672c-16.384 16.384-24.576 28.672-53.248 28.672s-36.864-12.288-53.248-28.672l-20.48-24.576c0 4.096 0 4.096 0 8.192 0 36.864 20.48 106.496 73.728 106.496 0 0 0 0 0 0s0 0 0 0c36.864 0 57.344-12.288 77.824-24.576 16.384 12.288 40.96 24.576 77.824 24.576 0 0 0 0 0 0s0 0 0 0c36.864 0 57.344-12.288 77.824-24.576 16.384 12.288 40.96 24.576 77.824 24.576 0 0 0 0 0 0s0 0 0 0c36.864 0 57.344-12.288 77.824-24.576 16.384 12.288 40.96 24.576 77.824 24.576 0 0 0 0 0 0s0 0 0 0c36.864 0 57.344-12.288 77.824-24.576 16.384 12.288 40.96 24.576 77.824 24.576 0 0 0 0 0 0s0 0 0 0c53.248 0 73.728-69.632 73.728-106.496-12.288-4.096-8.192-4.096-8.192-8.192z"></path>
	<path fill="rgb(255, 255, 255)" class="path3" d="M892.928 708.608l-20.48 24.576c-16.384 16.384-24.576 28.672-53.248 28.672s-36.864-12.288-53.248-28.672l-24.576-24.576-24.576 24.576c-16.384 16.384-24.576 28.672-53.248 28.672s-36.864-12.288-53.248-28.672l-24.576-24.576-24.576 24.576c-16.384 16.384-24.576 28.672-53.248 28.672s-36.864-12.288-53.248-28.672l-24.576-24.576-20.48 24.576c-16.384 16.384-24.576 28.672-53.248 28.672s-36.864-12.288-53.248-28.672l-24.576-24.576-24.576 24.576c-16.384 16.384-24.576 28.672-53.248 28.672s-36.864-12.288-53.248-28.672l-20.48-24.576c0 4.096 0 4.096 0 8.192-4.096 36.864 20.48 106.496 73.728 106.496 0 0 0 0 0 0s0 0 0 0c36.864 0 57.344-12.288 77.824-24.576 16.384 12.288 40.96 24.576 77.824 24.576 0 0 0 0 0 0s0 0 0 0c36.864 0 57.344-12.288 77.824-24.576 16.384 12.288 40.96 24.576 77.824 24.576 0 0 0 0 0 0s0 0 0 0c36.864 0 57.344-12.288 77.824-24.576 16.384 12.288 40.96 24.576 77.824 24.576 0 0 0 0 0 0s0 0 0 0c36.864 0 57.344-12.288 77.824-24.576 16.384 12.288 40.96 24.576 77.824 24.576 0 0 0 0 0 0s0 0 0 0c53.248 0 73.728-69.632 73.728-106.496-8.192-4.096-4.096-4.096-4.096-8.192z"></path>
	<path fill="rgb(255, 255, 255)" class="path4" d="M892.928 462.848l-20.48 24.576c-16.384 16.384-24.576 28.672-53.248 28.672s-36.864-12.288-53.248-28.672l-24.576-24.576-24.576 24.576c-16.384 16.384-24.576 28.672-53.248 28.672s-36.864-12.288-53.248-28.672l-24.576-24.576-24.576 24.576c-16.384 16.384-24.576 28.672-53.248 28.672s-36.864-12.288-53.248-28.672l-24.576-24.576-20.48 24.576c-16.384 16.384-24.576 28.672-53.248 28.672s-36.864-12.288-53.248-28.672l-24.576-24.576-24.576 24.576c-16.384 16.384-24.576 28.672-53.248 28.672s-36.864-12.288-53.248-28.672l-20.48-24.576c0 4.096 0 4.096 0 8.192-4.096 36.864 20.48 106.496 73.728 106.496 0 0 0 0 0 0s0 0 0 0c36.864 0 57.344-12.288 77.824-24.576 16.384 12.288 40.96 24.576 77.824 24.576 0 0 0 0 0 0s0 0 0 0c36.864 0 57.344-12.288 77.824-24.576 16.384 12.288 40.96 24.576 77.824 24.576 0 0 0 0 0 0s0 0 0 0c36.864 0 57.344-12.288 77.824-24.576 16.384 12.288 40.96 24.576 77.824 24.576 0 0 0 0 0 0s0 0 0 0c36.864 0 57.344-12.288 77.824-24.576 16.384 12.288 40.96 24.576 77.824 24.576 0 0 0 0 0 0s0 0 0 0c53.248 0 73.728-69.632 73.728-106.496-8.192-4.096-4.096-4.096-4.096-8.192z"></path>
</symbol>
<symbol id="icon-bicycling" viewBox="0 0 1024 1024">
	<title>bicycling</title>
	<path fill="rgb(88, 87, 71)" class="path1" d="M888.832 0h-753.664c-90.112 0-135.168 45.056-135.168 135.168v757.76c0 86.016 45.056 131.072 135.168 131.072h753.664c86.016 0 135.168-45.056 135.168-135.168v-753.664c-4.096-90.112-49.152-135.168-135.168-135.168z"></path>
	<path fill="rgb(255, 255, 255)" class="path2" d="M913.408 491.52c-32.768-32.768-73.728-49.152-118.784-49.152-24.576 0-49.152 4.096-77.824 16.384l-61.44-102.4v-114.688h-143.36v32.768h102.4v69.632h-229.376v-73.728h24.576v-28.672h-135.168v32.768h73.728v94.208l-40.96 77.824c-28.672-12.288-53.248-16.384-73.728-16.384-45.056 0-81.92 20.48-118.784 53.248s-53.248 73.728-53.248 114.688 20.48 81.92 53.248 114.688c36.864 36.864 73.728 53.248 118.784 53.248s81.92-20.48 118.784-53.248c36.864-36.864 53.248-73.728 53.248-118.784v-12.288l32.768-8.192c16.384 24.576 28.672 36.864 40.96 36.864h8.192c16.384 0 28.672-4.096 40.96-16.384 8.192-12.288 16.384-24.576 16.384-45.056l131.072-90.112 12.288 16.384c-45.056 36.864-65.536 81.92-65.536 135.168 0 49.152 16.384 90.112 49.152 122.88s73.728 49.152 122.88 49.152c45.056 0 86.016-16.384 118.784-49.152s49.152-73.728 49.152-122.88c0-45.056-16.384-86.016-49.152-118.784zM311.296 503.808c16.384 12.288 28.672 32.768 36.864 61.44l-81.92 24.576 45.056-86.016zM315.392 675.84c-24.576 20.48-53.248 32.768-86.016 32.768-16.384 0-28.672 0-45.056-8.192-12.288-4.096-24.576-12.288-36.864-24.576-8.192-8.192-16.384-20.48-24.576-36.864-4.096-12.288-8.192-28.672-8.192-45.056 0-32.768 8.192-57.344 32.768-81.92 24.576-20.48 53.248-32.768 86.016-32.768 16.384 0 32.768 4.096 49.152 12.288l-73.728 126.976 143.36-28.672c0 32.768-12.288 61.44-36.864 86.016zM393.216 557.056c-8.192-36.864-28.672-65.536-61.44-94.208l40.96-53.248 69.632 135.168-49.152 12.288zM491.52 589.824c-12.288 0-20.48-8.192-20.48-20.48s8.192-20.48 20.48-20.48 16.384 8.192 16.384 20.48-4.096 20.48-16.384 20.48zM524.288 528.384l-16.384-4.096c-8.192-4.096-16.384-4.096-20.48-4.096s-12.288 0-16.384 4.096l-73.728-147.456h229.376l32.768 53.248-135.168 98.304zM880.64 692.224c-24.576 20.48-53.248 32.768-86.016 32.768-16.384 0-28.672 0-45.056-8.192-12.288-4.096-24.576-12.288-36.864-24.576-8.192-8.192-16.384-20.48-24.576-36.864-4.096-12.288-8.192-28.672-8.192-45.056 0-32.768 12.288-61.44 36.864-86.016l69.632 106.496 24.576-16.384-65.536-110.592c16.384-8.192 36.864-12.288 53.248-12.288s28.672 0 45.056 8.192c12.288 4.096 24.576 12.288 36.864 24.576s20.48 24.576 28.672 36.864c4.096 12.288 8.192 28.672 8.192 45.056 0 32.768-12.288 61.44-36.864 86.016z"></path>
</symbol>
<symbol id="icon-birding-hotspot" viewBox="0 0 1024 1024">
	<title>birding-hotspot</title>
	<path fill="rgb(88, 87, 71)" class="path1" d="M888.832 0h-753.664c-90.112 0-135.168 45.056-135.168 135.168v757.76c0 86.016 45.056 131.072 135.168 131.072h753.664c86.016 0 135.168-45.056 135.168-135.168v-753.664c-4.096-90.112-49.152-135.168-135.168-135.168z"></path>
	<path fill="rgb(255, 255, 255)" class="path2" d="M831.488 274.432v-8.192l16.384-20.48 28.672-20.48 24.576-4.096 28.672-4.096-24.576-8.192-28.672-4.096-28.672 4.096-24.576 4.096-28.672-12.288-28.672-8.192c-98.304 20.48-122.88 49.152-176.128 131.072l-53.248 20.48h-4.096l-53.248 24.576-65.536 28.672-36.864 28.672-8.192 24.576v4.096c-94.208 69.632-212.992 118.784-319.488 176.128l8.192 20.48 4.096 12.288h20.48l12.288 12.288 20.48 4.096 24.576 4.096 28.672-20.48 12.288-20.48 28.672-20.48 32.768-20.48 12.288-20.48 28.672-8.192h20.48l12.288-4.096 20.48 4.096c-28.672 24.576-61.44 36.864-69.632 81.92l20.48 4.096 32.768-4.096 20.48-12.288 53.248-8.192 28.672-8.192 20.48 28.672 28.672 57.344 12.288 40.96v8.192l-4.096 12.288-12.288 12.288-20.48 8.192-36.864 24.576-4.096 4.096-4.096 20.48-4.096 8.192 4.096 4.096 12.288-4.096 53.248-28.672 8.192 12.288 16.384-16.384 20.48 4.096 4.096-24.576 28.672-20.48 65.536-40.96 8.192 24.576 12.288-28.672 20.48 12.288 4.096-28.672 20.48 8.192 4.096-28.672 49.152-24.576 28.672-20.48 12.288-36.864 4.096-20.48v-12.288l-24.576 20.48-32.768 24.576-28.672 20.48v8.192l-12.288-8.192-24.576-4.096-28.672-12.288-16.384-16.384c122.88-49.152 188.416-94.208 229.376-237.568l8.192-8.192 8.192-28.672 4.096-20.48 12.288-24.576 12.288-4.096h20.48l28.672-4.096c-32.768-16.384-57.344-28.672-98.304-12.288zM626.688 659.456c8.192 4.096 0 20.48 0 24.576-20.48 20.48-57.344 20.48-81.92 40.96h-4.096c-12.288 4.096-24.576 28.672-40.96 20.48-20.48-28.672-36.864-77.824-53.248-114.688 4.096-4.096 20.48-4.096 28.672 0 20.48 4.096 40.96 8.192 61.44 12.288s28.672 0 36.864-4.096c20.48 4.096 28.672 20.48 53.248 20.48z"></path>
</symbol>
<symbol id="icon-boat-rental" viewBox="0 0 1024 1024">
	<title>boat-rental</title>
	<path fill="rgb(12, 81, 163)" class="path1" d="M892.928 0h-757.76c-90.112 0-135.168 45.056-135.168 135.168v757.76c0 86.016 45.056 131.072 135.168 131.072h753.664c86.016 0 135.168-45.056 135.168-135.168v-753.664c0-90.112-45.056-135.168-131.072-135.168z"></path>
	<path fill="rgb(255, 255, 255)" class="path2" d="M446.464 602.112c28.672 0 45.056 16.384 65.536 57.344h94.208c-45.056-77.824-73.728-118.784-86.016-122.88h-8.192c-40.96 0-114.688 32.768-212.992 90.112l12.288 28.672c77.824-36.864 122.88-53.248 135.168-53.248z"></path>
	<path fill="rgb(255, 255, 255)" class="path3" d="M339.968 684.032l57.344 4.096-36.864-28.672-32.768 12.288z"></path>
	<path fill="rgb(255, 255, 255)" class="path4" d="M434.176 532.48c12.288 0 16.384 0 28.672-8.192 4.096-8.192 8.192-16.384 8.192-28.672 0-24.576-12.288-36.864-36.864-36.864s-36.864 12.288-40.96 36.864c0 24.576 12.288 36.864 40.96 36.864z"></path>
	<path fill="rgb(255, 255, 255)" class="path5" d="M61.44 688.128c12.288 36.864 24.576 53.248 24.576 57.344 12.288 32.768 32.768 49.152 53.248 49.152h4.096c16.384 0 32.768-8.192 45.056-28.672 8.192 16.384 28.672 28.672 49.152 28.672 16.384 0 36.864-8.192 45.056-28.672 8.192 16.384 28.672 28.672 49.152 28.672 16.384 0 32.768-8.192 45.056-28.672 4.096 8.192 24.576 16.384 53.248 16.384l-90.112-98.304h-278.528v4.096z"></path>
	<path fill="rgb(255, 255, 255)" class="path6" d="M438.272 794.624l73.728 57.344h69.632l-61.44-45.056z"></path>
	<path fill="rgb(255, 255, 255)" class="path7" d="M405.504 692.224c0 8.192 8.192 16.384 16.384 28.672 8.192 8.192 24.576 24.576 36.864 32.768 32.768 32.768 53.248 45.056 65.536 45.056 16.384 0 32.768-8.192 40.96-24.576 8.192 12.288 28.672 24.576 53.248 24.576s36.864-8.192 45.056-24.576c8.192 12.288 28.672 24.576 53.248 24.576 12.288 0 28.672-8.192 40.96-28.672 12.288 16.384 32.768 28.672 49.152 28.672 28.672 0 40.96-8.192 49.152-24.576 12.288 12.288 28.672 24.576 45.056 24.576 8.192 0 24.576-12.288 36.864-45.056 4.096-8.192 8.192-24.576 12.288-32.768s8.192-16.384 12.288-28.672h-557.056z"></path>
	<path fill="rgb(255, 255, 255)" class="path8" d="M61.44 122.88h65.536c12.288 0 24.576 0 28.672 0 8.192 0 12.288 4.096 20.48 8.192 8.192 8.192 16.384 16.384 20.48 24.576s4.096 20.48 4.096 32.768c0 28.672-8.192 45.056-28.672 57.344l40.96 94.208h-53.248l-28.672-90.112h-24.576v86.016h-49.152v-212.992h4.096zM106.496 155.648v61.44h20.48c16.384 0 28.672-12.288 28.672-32.768 0-8.192 0-12.288-4.096-16.384s-4.096-8.192-8.192-8.192-12.288-4.096-16.384-4.096h-20.48z"></path>
	<path fill="rgb(255, 255, 255)" class="path9" d="M233.472 122.88h131.072v36.864h-81.92v49.152h65.536v36.864h-65.536v53.248h81.92v36.864h-131.072v-212.992z"></path>
	<path fill="rgb(255, 255, 255)" class="path10" d="M389.12 122.88h49.152l53.248 135.168v-135.168h36.864v212.992h-40.96l-65.536-155.648v155.648h-32.768v-212.992z"></path>
	<path fill="rgb(255, 255, 255)" class="path11" d="M544.768 122.88h135.168v40.96h-45.056v176.128h-49.152v-176.128h-40.96v-40.96z"></path>
	<path fill="rgb(255, 255, 255)" class="path12" d="M729.088 122.88h49.152l61.44 212.992h-49.152l-12.288-45.056h-61.44l-12.288 45.056h-45.056l69.632-212.992zM770.048 253.952l-20.48-86.016-20.48 86.016h40.96z"></path>
	<path fill="rgb(255, 255, 255)" class="path13" d="M856.064 122.88h49.152v176.128h65.536v40.96h-114.688c0 0 0-217.088 0-217.088z"></path>
</symbol>
<symbol id="icon-cross-country-skiing" viewBox="0 0 1024 1024">
	<title>cross-country-skiing</title>
	<path fill="rgb(88, 87, 71)" class="path1" d="M888.832 0h-753.664c-90.112 0-135.168 45.056-135.168 135.168v761.856c0 86.016 45.056 126.976 135.168 126.976h753.664c86.016 0 135.168-45.056 135.168-135.168v-753.664c-4.096-90.112-49.152-135.168-135.168-135.168z"></path>
	<path fill="rgb(255, 255, 255)" class="path2" d="M958.464 794.624l-24.576-12.288c-12.288 8.192-24.576 12.288-28.672 12.288h-217.088l110.592-364.544c32.768-20.48 49.152-36.864 49.152-57.344 0-4.096 0-4.096 0-8.192s-4.096-4.096-8.192-4.096l-28.672 8.192c-20.48 4.096-32.768 8.192-36.864 8.192-8.192 0-12.288-4.096-20.48-8.192s-16.384-8.192-24.576-16.384-24.576-24.576-24.576-32.768c0 0 4.096 0 8.192 4.096 4.096 0 8.192 4.096 12.288 4.096s4.096 0 8.192 0c8.192-4.096 16.384-4.096 20.48-4.096 16.384 0 32.768-8.192 45.056-20.48s20.48-28.672 20.48-49.152c0-20.48-8.192-36.864-20.48-49.152s-28.672-20.48-45.056-20.48c-20.48 0-36.864 8.192-49.152 20.48s-20.48 28.672-20.48 49.152c0 12.288 4.096 20.48 12.288 36.864-114.688 40.96-184.32 90.112-204.8 139.264h-294.912v28.672h286.72c-4.096 12.288-8.192 24.576-8.192 32.768 0 4.096 0 8.192 4.096 12.288l-131.072 36.864c-65.536 16.384-98.304 28.672-98.304 36.864l-4.096 32.768c-4.096 20.48-4.096 32.768-4.096 40.96l-155.648-114.688-24.576 28.672 303.104 229.376h-81.92v36.864c102.4 0 192.512 0 266.24 0 77.824 0 139.264 0 192.512 0s94.208 0 118.784 0c28.672 0 40.96 0 45.056 0 28.672-4.096 45.056-20.48 53.248-36.864zM548.864 712.704c0 16.384 0 28.672-4.096 45.056l-4.096 36.864h-114.688l-163.84-135.168 12.288-4.096c4.096-4.096 8.192-12.288 8.192-24.576 0-8.192 28.672-16.384 81.92-28.672 16.384-4.096 28.672-8.192 45.056-12.288s28.672-8.192 40.96-12.288c16.384-16.384 32.768-24.576 49.152-24.576 4.096 0 12.288 16.384 24.576 45.056 20.48 16.384 24.576 53.248 24.576 114.688zM757.76 446.464l-98.304 344.064h-57.344l12.288-155.648v-12.288c0-12.288 0-28.672-4.096-45.056 0-20.48-4.096-45.056-8.192-73.728v-8.192c0-20.48 12.288-36.864 32.768-57.344 8.192-8.192 16.384-12.288 20.48-16.384 12.288-4.096 20.48-4.096 24.576-4.096 12.288 0 16.384 4.096 24.576 8.192 4.096 12.288 24.576 20.48 53.248 20.48z"></path>
</symbol>
<symbol id="icon-ecological-management-area" viewBox="0 0 1024 1024">
	<title>ecological-management-area</title>
	<path fill="rgb(88, 87, 71)" class="path1" d="M888.832 0h-753.664c-90.112 0-135.168 45.056-135.168 135.168v757.76c0 86.016 45.056 131.072 135.168 131.072h753.664c86.016 0 135.168-45.056 135.168-135.168v-753.664c-4.096-90.112-49.152-135.168-135.168-135.168z"></path>
	<path fill="rgb(255, 255, 255)" class="path2" d="M991.232 516.096c0 0-180.224 61.44-253.952 57.344-32.768 0-81.92-12.288-126.976-28.672l-8.192 4.096c40.96 20.48 86.016 40.96 110.592 65.536 57.344 53.248 143.36 221.184 143.36 221.184l-8.192 8.192c0 0-176.128-81.92-229.376-139.264-20.48-28.672-49.152-65.536-65.536-110.592l-4.096 8.192c12.288 40.96 28.672 90.112 28.672 126.976 4.096 77.824-61.44 253.952-61.44 253.952h-8.192c0 0-61.44-180.224-57.344-253.952 0-32.768 12.288-86.016 28.672-126.976h-8.192c-24.576 40.96-49.152 86.016-69.632 114.688-53.248 57.344-221.184 139.264-221.184 139.264l-8.192-8.192c0 0 81.92-172.032 139.264-221.184 28.672-24.576 69.632-53.248 114.688-69.632v-4.096h-8.192c-40.96 20.48-94.208 28.672-126.976 28.672-77.824 4.096-253.952-61.44-253.952-61.44v-4.096c0 0 180.224-65.536 253.952-61.44 32.768 0 81.92 16.384 131.072 24.576v-4.096c-40.96-24.576-90.112-53.248-118.784-77.824-53.248-53.248-135.168-221.184-135.168-221.184l4.096-4.096c0 0 176.128 81.92 229.376 139.264 24.576 28.672 53.248 77.824 69.632 114.688h4.096c-12.288-40.96-28.672-94.208-28.672-126.976-4.096-77.824 61.44-253.952 61.44-253.952h8.192c0 0 61.44 180.224 57.344 253.952 0 32.768-12.288 86.016-28.672 126.976h4.096v4.096c20.48-49.152 49.152-94.208 65.536-122.88 53.248-57.344 221.184-143.36 221.184-143.36l4.096 4.096c0 0-81.92 176.128-131.072 229.376-20.48 20.48-65.536 49.152-106.496 65.536h-4.096l4.096 8.192c40.96-12.288 94.208-28.672 126.976-28.672 77.824-4.096 258.048 61.44 258.048 61.44l4.096 12.288c-4.096 0 0 0 0 0z"></path>
</symbol>
<symbol id="icon-equestrian" viewBox="0 0 1024 1024">
	<title>equestrian</title>
	<path fill="rgb(88, 87, 71)" class="path1" d="M888.832 0h-753.664c-90.112 0-135.168 45.056-135.168 135.168v757.76c0 86.016 45.056 131.072 135.168 131.072h753.664c86.016 0 135.168-45.056 135.168-135.168v-753.664c-4.096-90.112-49.152-135.168-135.168-135.168z"></path>
	<path fill="rgb(255, 255, 255)" class="path2" d="M512 184.32c12.288 0 20.48-4.096 32.768-12.288 8.192-12.288 12.288-20.48 12.288-32.768 0-32.768-16.384-45.056-45.056-45.056-12.288 0-20.48 4.096-32.768 12.288-8.192 8.192-12.288 16.384-12.288 32.768 0 12.288 8.192 20.48 12.288 28.672 12.288 12.288 20.48 16.384 32.768 16.384z"></path>
	<path fill="rgb(255, 255, 255)" class="path3" d="M942.080 438.272c-8.192-12.288-12.288-36.864-28.672-69.632 12.288-12.288 12.288-28.672 12.288-36.864l-12.288 8.192-4.096-8.192c-12.288 8.192-20.48 12.288-28.672 28.672h-8.192c-4.096 0-8.192 0-12.288 4.096-45.056 8.192-110.592 20.48-192.512 36.864l-24.576-16.384-24.576 12.288 16.384 12.288c-12.288 4.096-20.48 4.096-32.768 8.192-4.096-4.096-12.288-8.192-24.576-12.288-4.096-4.096-12.288-12.288-24.576-20.48l-8.192-32.768 61.44 40.96 28.672-20.48-102.4-77.824c-4.096-20.48-12.288-57.344-20.48-106.496h-4.096c-16.384 0-28.672-4.096-36.864-12.288-32.768 36.864-49.152 81.92-49.152 139.264 0-12.288 4.096 4.096 4.096 36.864 0 0 0 12.288 0 40.96-4.096 0-12.288 8.192-28.672 12.288-12.288 4.096-20.48 8.192-36.864 8.192-12.288 0-24.576 0-45.056-4.096-16.384 0-36.864-4.096-40.96-4.096-36.864 0-73.728 12.288-106.496 28.672-36.864 20.48-53.248 49.152-53.248 86.016 0 8.192 0 12.288 4.096 24.576 0 12.288 0 20.48 0 28.672 0 4.096 0 12.288-4.096 36.864-8.192 32.768-12.288 53.248-24.576 65.536 32.768-4.096 57.344-20.48 77.824-53.248 0 8.192 4.096 12.288 8.192 12.288-12.288 36.864-28.672 61.44-53.248 77.824-4.096 69.632-12.288 122.88-28.672 163.84-8.192 4.096-12.288 8.192-20.48 12.288l8.192 45.056c16.384-12.288 28.672-28.672 40.96-32.768 0-8.192 8.192-20.48 16.384-36.864 4.096-8.192 8.192-12.288 8.192-20.48 0-16.384 8.192-49.152 20.48-90.112 8.192-8.192 12.288-12.288 28.672-24.576l77.824-69.632c4.096 4.096 12.288 12.288 12.288 32.768 8.192 20.48 12.288 32.768 12.288 40.96v16.384c0 4.096 8.192 16.384 20.48 36.864 28.672 40.96 40.96 69.632 40.96 90.112v4.096l-4.096 4.096c0 0 8.192 4.096 16.384 8.192 8.192 16.384 12.288 24.576 16.384 24.576h40.96c12.288 0 12.288-4.096 12.288-12.288 0-4.096-8.192-12.288-24.576-28.672-8.192-16.384-16.384-24.576-20.48-28.672-4.096-12.288-8.192-20.48-12.288-36.864-16.384-36.864-28.672-81.92-28.672-122.88 0-16.384 4.096-36.864 8.192-57.344 12.288 12.288 28.672 12.288 40.96 16.384 20.48 8.192 57.344 12.288 106.496 12.288 12.288 4.096 28.672 4.096 36.864 4.096l-16.384 81.92-16.384 36.864c0 4.096 0 4.096-4.096 8.192-8.192 12.288-16.384 20.48-28.672 28.672-4.096 0-12.288 12.288-16.384 28.672l-12.288 4.096-12.288 16.384c4.096 12.288 16.384 28.672 40.96 40.96 8.192-12.288 8.192-32.768 8.192-49.152 8.192 0 12.288-4.096 12.288-12.288 4.096 0 4.096-4.096 4.096-4.096 16.384-16.384 40.96-45.056 65.536-77.824l57.344-102.4c12.288 8.192 28.672 20.48 36.864 40.96 4.096 12.288 12.288 24.576 20.48 40.96 4.096 8.192 12.288 16.384 20.48 32.768 20.48 36.864 28.672 61.44 32.768 90.112 20.48 0 28.672 12.288 32.768 36.864h61.44c0-8.192 0-12.288-4.096-12.288-12.288-12.288-24.576-20.48-36.864-36.864s-28.672-61.44-57.344-135.168c-4.096-4.096-4.096-24.576-12.288-65.536l-4.096-28.672c0-4.096 4.096-12.288 8.192-24.576s8.192-32.768 20.48-57.344c12.288-12.288 20.48-24.576 36.864-36.864 28.672 16.384 53.248 36.864 69.632 45.056 24.576 12.288 36.864 20.48 40.96 20.48 12.288 0 20.48-8.192 28.672-20.48l8.192 4.096c4.096 0 12.288-8.192 24.576-16.384v-4.096c12.288-8.192 12.288-12.288 12.288-16.384 8.192 0-8.192-28.672-28.672-81.92zM897.024 557.056c-8.192 0-16.384-8.192-36.864-16.384-12.288-8.192-32.768-16.384-57.344-36.864 12.288-12.288 28.672-16.384 40.96-16.384 8.192 4.096 12.288 8.192 12.288 12.288 12.288 12.288 28.672 20.48 36.864 24.576 12.288 16.384 12.288 28.672 12.288 28.672 4.096 0 0 4.096-8.192 4.096z"></path>
</symbol>
<symbol id="icon-fishing" viewBox="0 0 1024 1024">
	<title>fishing</title>
	<path fill="rgb(88, 87, 71)" class="path1" d="M888.832 0h-753.664c-90.112 0-135.168 45.056-135.168 135.168v761.856c0 86.016 45.056 126.976 135.168 126.976h753.664c86.016 0 135.168-45.056 135.168-135.168v-753.664c-4.096-90.112-49.152-135.168-135.168-135.168z"></path>
	<path fill="rgb(255, 255, 255)" class="path2" d="M724.992 446.464c28.672 0 53.248-8.192 73.728-28.672s32.768-40.96 32.768-65.536v-352.256h-53.248v352.256c-16.384 24.576-36.864 36.864-57.344 36.864s-36.864-8.192-53.248-24.576c-16.384-16.384-28.672-36.864-32.768-61.44-8.192-32.768-12.288-45.056-16.384-45.056s-8.192 4.096-16.384 12.288c-4.096 8.192-8.192 20.48-8.192 32.768 0 36.864 12.288 73.728 36.864 102.4 32.768 28.672 61.44 40.96 94.208 40.96z"></path>
	<path fill="rgb(255, 255, 255)" class="path3" d="M888.832 716.8v0c0-8.192 28.672-24.576 81.92-45.056-20.48-20.48-57.344-45.056-106.496-65.536-36.864-16.384-77.824-24.576-118.784-32.768-45.056-8.192-90.112-12.288-143.36-12.288h-12.288c-114.688 0-217.088 28.672-307.2 86.016-36.864 20.48-61.44 36.864-69.632 45.056-16.384-8.192-32.768-20.48-49.152-32.768s-32.768-24.576-49.152-40.96c-24.576-20.48-36.864-32.768-40.96-32.768v0c-4.096 4.096-4.096 16.384-4.096 49.152 0 20.48 20.48 49.152 57.344 90.112-24.576 40.96-36.864 77.824-36.864 102.4v8.192c0 12.288 4.096 20.48 4.096 28.672s4.096 12.288 4.096 16.384c4.096 0 16.384-12.288 36.864-40.96 28.672-32.768 57.344-61.44 81.92-81.92 61.44 36.864 106.496 61.44 122.88 69.632 73.728 32.768 155.648 49.152 249.856 49.152h8.192c167.936 0 294.912-40.96 385.024-122.88-61.44-16.384-90.112-28.672-94.208-36.864zM786.432 720.896c-8.192 12.288-20.48 16.384-28.672 16.384-28.672 0-45.056-16.384-45.056-49.152 0-12.288 4.096-24.576 12.288-32.768s16.384-12.288 28.672-12.288 20.48 4.096 28.672 12.288 12.288 20.48 12.288 32.768c4.096 12.288 0 24.576-8.192 32.768z"></path>
</symbol>
<symbol id="icon-hiking" viewBox="0 0 1024 1024">
	<title>hiking</title>
	<path fill="rgb(88, 87, 71)" class="path1" d="M888.832 0h-753.664c-90.112 0-135.168 45.056-135.168 135.168v761.856c0 86.016 45.056 126.976 135.168 126.976h753.664c86.016 0 135.168-45.056 135.168-135.168v-753.664c-4.096-90.112-49.152-135.168-135.168-135.168z"></path>
	<path fill="rgb(255, 255, 255)" class="path2" d="M774.144 528.384c0-8.192-16.384-20.48-49.152-36.864-36.864-16.384-61.44-28.672-65.536-36.864-36.864-20.48-57.344-40.96-57.344-57.344 4.096-4.096 4.096-8.192 4.096-20.48 0-32.768-8.192-69.632-24.576-106.496l12.288-32.768c16.384 0 32.768-8.192 49.152-20.48 12.288-12.288 20.48-28.672 20.48-45.056 0-20.48-8.192-36.864-20.48-49.152s-28.672-20.48-49.152-20.48-36.864 8.192-49.152 20.48-20.48 28.672-20.48 49.152 8.192 36.864 20.48 49.152l12.288 20.48c-4.096-4.096-8.192-4.096-16.384-4.096-49.152 0-106.496 81.92-172.032 249.856 4.096 20.48 8.192 36.864 8.192 49.152s-4.096 24.576-8.192 32.768c-12.288 20.48-28.672 69.632-53.248 143.36-28.672 94.208-45.056 155.648-45.056 188.416 0 12.288 0 20.48 4.096 20.48l53.248 8.192c0 0 4.096 0 12.288 0s16.384 0 28.672 4.096l4.096-40.96-45.056-20.48c12.288-20.48 16.384-28.672 16.384-28.672l65.536-147.456c24.576-49.152 36.864-73.728 45.056-73.728v0c8.192 8.192 16.384 24.576 32.768 53.248 28.672 53.248 40.96 81.92 45.056 86.016 0 4.096 0 16.384 4.096 32.768l-94.208 143.36 32.768 12.288 77.824-118.784c4.096 24.576 8.192 45.056 12.288 61.44s4.096 24.576 8.192 28.672c8.192 28.672 16.384 45.056 24.576 45.056h86.016l8.192-12.288-8.192-28.672-69.632-16.384c4.096-12.288 4.096-24.576 4.096-36.864 0-20.48 0-45.056-4.096-65.536s-4.096-40.96-12.288-65.536l135.168-212.992c12.288 4.096 20.48 8.192 28.672 8.192 4.096 0 8.192-4.096 8.192-8.192zM479.232 204.8c0-4.096-4.096-8.192-16.384-8.192-20.48 0-49.152 28.672-86.016 81.92-36.864 49.152-53.248 90.112-53.248 110.592 0 12.288 4.096 16.384 12.288 16.384 16.384 0 36.864-20.48 57.344-57.344l49.152-86.016c24.576-40.96 36.864-61.44 36.864-57.344zM700.416 524.288l-114.688 180.224c-4.096-16.384-16.384-45.056-36.864-90.112-16.384-36.864-24.576-57.344-24.576-61.44 0-53.248 8.192-86.016 24.576-90.112h4.096c8.192 0 24.576 8.192 57.344 24.576 20.48 8.192 36.864 16.384 53.248 24.576 12.288 4.096 24.576 8.192 36.864 12.288z"></path>
</symbol>
<symbol id="icon-ice-fishing" viewBox="0 0 1024 1024">
	<title>ice-fishing</title>
	<path fill="rgb(88, 87, 71)" class="path1" d="M888.832 0h-753.664c-90.112 0-135.168 45.056-135.168 135.168v761.856c0 86.016 45.056 126.976 135.168 126.976h753.664c86.016 0 135.168-45.056 135.168-135.168v-753.664c-4.096-90.112-49.152-135.168-135.168-135.168z"></path>
	<path fill="rgb(255, 255, 255)" class="path2" d="M724.992 446.464c28.672 0 53.248-8.192 73.728-28.672s32.768-40.96 32.768-65.536v-352.256h-53.248v352.256c-16.384 24.576-36.864 36.864-57.344 36.864s-36.864-8.192-53.248-24.576-28.672-36.864-32.768-61.44c-8.192-32.768-12.288-45.056-16.384-45.056s-8.192 4.096-16.384 12.288c-4.096 8.192-8.192 20.48-8.192 32.768 0 36.864 12.288 73.728 36.864 102.4 32.768 28.672 61.44 40.96 94.208 40.96z"></path>
	<path fill="rgb(255, 255, 255)" class="path3" d="M888.832 716.8v0c0-8.192 28.672-24.576 81.92-45.056-20.48-20.48-57.344-45.056-106.496-65.536-36.864-16.384-77.824-24.576-118.784-32.768-45.056-8.192-90.112-12.288-143.36-12.288h-12.288c-114.688 0-217.088 28.672-307.2 86.016-36.864 20.48-61.44 36.864-69.632 45.056-16.384-8.192-32.768-20.48-49.152-32.768s-32.768-24.576-49.152-40.96c-24.576-20.48-36.864-32.768-40.96-32.768v0c-4.096 4.096-4.096 16.384-4.096 49.152 0 20.48 20.48 49.152 57.344 90.112-24.576 40.96-36.864 77.824-36.864 102.4v8.192c0 12.288 4.096 20.48 4.096 28.672s4.096 12.288 4.096 16.384c4.096 0 16.384-12.288 36.864-40.96 28.672-32.768 57.344-61.44 81.92-81.92 61.44 36.864 106.496 61.44 122.88 69.632 73.728 32.768 155.648 49.152 249.856 49.152h8.192c167.936 0 294.912-40.96 385.024-122.88-61.44-16.384-90.112-28.672-94.208-36.864zM786.432 720.896c-8.192 12.288-20.48 16.384-28.672 16.384-28.672 0-45.056-16.384-45.056-49.152 0-12.288 4.096-24.576 12.288-32.768s16.384-12.288 28.672-12.288 20.48 4.096 28.672 12.288c8.192 8.192 12.288 20.48 12.288 32.768 4.096 12.288 0 24.576-8.192 32.768z"></path>
	<path fill="rgb(255, 255, 255)" class="path4" d="M65.536 425.984c4.096 4.096 8.192 8.192 12.288 8.192s4.096 0 8.192 0l65.536-36.864-8.192 40.96c0 8.192 4.096 16.384 12.288 16.384h4.096c8.192 0 12.288-4.096 16.384-12.288l16.384-73.728 73.728-40.96v81.92l-53.248 61.44c-8.192 4.096-8.192 12.288 0 20.48 4.096 4.096 8.192 4.096 8.192 4.096 4.096 0 8.192 0 12.288-4.096l32.768-32.768v73.728c0 8.192 8.192 16.384 16.384 16.384s16.384-8.192 16.384-16.384v-73.728l28.672 32.768c4.096 4.096 16.384 4.096 20.48 0s4.096-16.384 0-20.48l-53.248-57.344v-81.92l73.728 40.96 20.48 73.728c0 8.192 8.192 12.288 16.384 12.288h4.096c8.192-4.096 12.288-12.288 12.288-20.48l-16.384-45.056 61.44 36.864c4.096 0 4.096 0 8.192 0s12.288-4.096 12.288-8.192c4.096-4.096 0-12.288-8.192-16.384l-57.344-36.864 45.056-12.288c8.192 0 12.288-8.192 12.288-16.384s-8.192-12.288-16.384-12.288l-81.92 20.48-73.728-45.056 77.824-45.056 77.824 16.384h4.096c8.192 0 12.288-4.096 16.384-12.288 0-8.192-4.096-16.384-12.288-16.384l-45.056-8.192 53.248-32.768c8.192-4.096 12.288-12.288 8.192-20.48s-12.288-8.192-20.48-8.192l-57.344 32.768 12.288-45.056c4.096-8.192-4.096-16.384-12.288-20.48-4.096 0-12.288 4.096-16.384 12.288l-20.48 73.728-77.824 45.056v-86.016l53.248-57.344c4.096-4.096 4.096-16.384 0-20.48s-16.384-4.096-20.48 0l-32.768 32.768v-65.536c0-8.192-8.192-16.384-16.384-16.384s-12.288 8.192-12.288 16.384v65.536l-36.864-32.768c-4.096-4.096-16.384-4.096-20.48 0s-4.096 16.384 0 20.48l53.248 57.344v90.112l-73.728-45.056-24.576-69.632c-4.096-8.192-12.288-12.288-20.48-8.192s-12.288 12.288-8.192 20.48l12.288 36.864-61.44-32.768c-8.192-4.096-16.384 0-20.48 4.096s0 16.384 4.096 20.48l65.536 36.864-45.056 12.288c-8.192 4.096-12.288 12.288-12.288 20.48 4.096 8.192 8.192 12.288 16.384 12.288h4.096l77.824-20.48 73.728 40.96-69.632 40.96-86.016-16.384c-8.192 0-12.288 4.096-16.384 12.288 0 8.192 4.096 16.384 12.288 16.384l40.96 8.192-61.44 36.864c-4.096 4.096-8.192 12.288-4.096 20.48z"></path>
</symbol>
<symbol id="icon-ice-skating" viewBox="0 0 1024 1024">
	<title>ice-skating</title>
	<path fill="rgb(88, 87, 71)" class="path1" d="M892.928 0h-757.76c-90.112 0-135.168 45.056-135.168 135.168v757.76c0 86.016 45.056 131.072 135.168 131.072h753.664c86.016 0 135.168-45.056 135.168-135.168v-753.664c0-90.112-45.056-135.168-131.072-135.168z"></path>
	<path fill="rgb(255, 255, 255)" class="path2" d="M819.2 159.744c12.288-12.288 28.672-20.48 49.152-20.48s32.768 8.192 49.152 20.48c12.288 12.288 20.48 28.672 20.48 49.152v4.096c0 20.48-8.192 36.864-20.48 49.152-16.384 12.288-28.672 20.48-49.152 20.48s-32.768-8.192-49.152-20.48c-12.288-12.288-20.48-28.672-20.48-49.152s4.096-36.864 20.48-53.248zM155.648 282.624c-4.096 0-8.192 0-8.192-4.096-4.096-4.096 0-8.192 4.096-12.288l36.864-20.48-24.576-4.096c-4.096 0-8.192-4.096-8.192-12.288 0-4.096 4.096-8.192 12.288-8.192l49.152 8.192 45.056-24.576-49.152-24.576-49.152 16.384c0 0 0 0-4.096 0s-8.192-4.096-8.192-8.192c0-4.096 0-8.192 8.192-12.288l28.672-8.192-40.96-24.576c0 0-4.096-4.096 0-8.192s8.192-4.096 12.288-4.096l36.864 20.48-8.192-24.576c0-4.096 0-8.192 4.096-12.288 4.096 0 12.288 4.096 12.288 8.192l16.384 40.96 49.152 28.672v-57.344l-36.864-32.768c-4.096-4.096-4.096-8.192 0-12.288s8.192-4.096 12.288 0l20.48 20.48v-40.96c0-4.096 4.096-8.192 8.192-8.192 8.192 0 12.288 4.096 12.288 8.192v40.96l16.384-20.48c4.096-4.096 8.192-4.096 12.288 0s4.096 8.192 0 12.288l-28.672 32.768v53.248l45.056-24.576 12.288-45.056c0-4.096 8.192-8.192 12.288-8.192s8.192 8.192 8.192 12.288l-8.192 28.672 32.768-20.48c4.096-4.096 8.192 0 12.288 4.096s0 8.192-4.096 12.288l-32.768 20.48 28.672 8.192c4.096 0 8.192 4.096 8.192 12.288 0 4.096-4.096 8.192-8.192 8.192 0 0 0 0-4.096 0l-49.152-16.384-49.152 28.672 45.056 24.576 45.056-12.288c4.096 0 8.192 0 12.288 8.192 0 4.096 0 8.192-8.192 12.288l-24.576 4.096 36.864 20.48c4.096 4.096 4.096 8.192 4.096 12.288s-4.096 4.096-8.192 4.096c0 0-4.096 0-4.096 0l-36.864-20.48 8.192 24.576c0 4.096 0 8.192-8.192 12.288 0 0 0 0-4.096 0s-8.192-4.096-8.192-8.192l-12.288-40.96-40.96-24.576v49.152l32.768 32.768c4.096 4.096 4.096 8.192 0 12.288s-8.192 4.096-12.288 0l-20.48-20.48v45.056c0 4.096-4.096 8.192-8.192 8.192s-8.192-4.096-8.192-8.192v-45.056l-20.48 20.48c0 0-4.096 4.096-8.192 4.096s-4.096 0-4.096-4.096c-4.096-4.096-4.096-8.192 0-12.288l32.768-36.864v-49.152l-49.152 28.672-12.288 45.056c0 4.096-4.096 8.192-8.192 8.192 0 0 0 0 0 0-4.096 0-8.192-4.096-8.192-12.288l8.192-28.672-40.96 24.576c0-4.096-4.096-4.096-4.096-4.096zM217.088 864.256h-4.096c-12.288-4.096-24.576-12.288-28.672-28.672v-196.608l20.48 16.384v180.224l16.384 20.48c0 0 4.096 4.096 4.096 4.096 0 4.096-4.096 4.096-8.192 4.096zM798.72 913.408c-4.096 12.288-12.288 20.48-28.672 28.672h-196.608l16.384-20.48h180.224l16.384-20.48c4.096 0 4.096-4.096 8.192-4.096s4.096 4.096 4.096 8.192v8.192c0-4.096 0 0 0 0zM946.176 507.904l-16.384 12.288c-77.824-20.48-122.88-32.768-131.072-45.056-45.056-32.768-69.632-57.344-77.824-81.92-4.096-8.192-8.192-12.288-20.48-12.288-24.576 0-61.44 12.288-114.688 36.864 24.576 49.152 40.96 86.016 57.344 114.688 12.288 28.672 20.48 49.152 20.48 61.44 4.096 16.384 4.096 45.056 8.192 94.208 0 45.056 4.096 110.592 4.096 188.416l-4.096 16.384-28.672-12.288c-4.096-36.864-8.192-69.632-12.288-90.112s-8.192-36.864-8.192-45.056c-4.096-49.152-8.192-90.112-8.192-126.976l-102.4-135.168-28.672 122.88c-8.192 24.576-28.672 45.056-57.344 61.44-12.288 8.192-73.728 36.864-188.416 94.208l-16.384-24.576c110.592-73.728 172.032-118.784 184.32-135.168 4.096-4.096 8.192-16.384 12.288-28.672 4.096-16.384 4.096-32.768 8.192-57.344l8.192-81.92c0-16.384 0-28.672 4.096-36.864 0-8.192 4.096-16.384 8.192-20.48 16.384-20.48 53.248-49.152 110.592-81.92l81.92-53.248c0 0 0-4.096 0-8.192s0-12.288-4.096-16.384c0-8.192-4.096-12.288-8.192-20.48s-8.192-12.288-12.288-20.48c-4.096-4.096-8.192-12.288-12.288-12.288-12.288-12.288-49.152-16.384-106.496-16.384-24.576 0-45.056 0-65.536 4.096l-4.096-20.48c20.48-8.192 40.96-16.384 61.44-20.48 16.384-4.096 32.768-8.192 49.152-8.192l53.248 4.096c16.384 0 24.576 4.096 32.768 12.288 4.096 4.096 16.384 12.288 32.768 24.576s45.056 32.768 77.824 53.248c12.288 8.192 24.576 45.056 45.056 106.496 12.288 40.96 20.48 73.728 28.672 102.4 4.096 8.192 16.384 20.48 36.864 36.864 16.384 12.288 36.864 24.576 53.248 32.768s32.768 20.48 49.152 32.768v0 0z"></path>
</symbol>
<symbol id="icon-model-sailboat" viewBox="0 0 1024 1024">
	<title>model-sailboat</title>
	<path fill="rgb(88, 87, 71)" class="path1" d="M888.832 0h-753.664c-90.112 0-135.168 45.056-135.168 135.168v757.76c0 86.016 45.056 131.072 135.168 131.072h753.664c86.016 0 135.168-45.056 135.168-135.168v-753.664c-4.096-90.112-49.152-135.168-135.168-135.168z"></path>
	<path fill="rgb(255, 255, 255)" class="path2" d="M606.208 794.624v-692.224l-548.864 692.224h548.864zM81.92 167.936l4.096 12.288h4.096c28.672 0 53.248-8.192 73.728-28.672s28.672-40.96 28.672-69.632h-12.288c0 24.576-12.288 40.96-28.672 61.44-16.384 16.384-36.864 24.576-61.44 24.576h-8.192zM208.896 192.512c-28.672 24.576-61.44 40.96-94.208 40.96h-16.384l4.096 20.48h8.192c40.96 0 77.824-16.384 110.592-45.056 28.672-28.672 45.056-65.536 49.152-106.496l-20.48-4.096c0 36.864-12.288 65.536-40.96 94.208zM356.352 114.688h-28.672c-4.096 53.248-24.576 98.304-61.44 135.168s-81.92 53.248-135.168 57.344c-12.288 0-16.384 0-20.48-4.096l4.096 28.672h16.384c32.768 0 73.728-12.288 122.88-36.864 65.536-45.056 98.304-102.4 102.4-180.224zM290.816 327.68c-8.192 8.192-20.48 12.288-28.672 16.384l-16.384 12.288-24.576 8.192c-28.672 12.288-57.344 20.48-94.208 20.48l4.096 28.672c45.056-4.096 86.016-16.384 122.88-28.672l24.576-16.384c16.384-8.192 32.768-16.384 49.152-28.672 8.192-8.192 12.288-16.384 12.288-20.48 53.248-53.248 90.112-114.688 102.4-184.32l-28.672-4.096c-4.096 49.152-20.48 94.208-49.152 131.072l-49.152 49.152c-4.096 4.096-12.288 8.192-24.576 16.384zM856.064 811.008h-598.016c12.288 32.768 24.576 53.248 28.672 69.632 12.288 20.48 28.672 32.768 53.248 40.96h4.096c16.384 0 32.768-8.192 45.056-20.48 8.192 12.288 24.576 20.48 49.152 20.48 20.48 0 32.768-8.192 40.96-20.48 16.384 12.288 32.768 20.48 49.152 20.48 20.48 0 32.768-8.192 45.056-24.576 12.288 16.384 28.672 24.576 49.152 24.576s36.864-8.192 45.056-20.48c12.288 12.288 28.672 20.48 40.96 20.48s32.768-8.192 65.536-28.672l24.576-24.576c12.288-16.384 32.768-36.864 57.344-57.344zM802.816 798.72h159.744l-159.744-282.624-159.744-278.528v557.056l159.744 4.096z"></path>
</symbol>
<symbol id="icon-no-alcohol" viewBox="0 0 1024 1024">
	<title>no-alcohol</title>
	<path fill="rgb(88, 87, 71)" class="path1" d="M888.832 0h-753.664c-90.112 0-135.168 45.056-135.168 135.168v757.76c0 86.016 45.056 131.072 135.168 131.072h753.664c86.016 0 135.168-45.056 135.168-135.168v-753.664c-4.096-90.112-49.152-135.168-135.168-135.168z"></path>
	<path fill="rgb(255, 255, 255)" class="path2" d="M512 40.96c-266.24 0-471.040 208.896-471.040 471.040 0 266.24 204.8 471.040 471.040 471.040 262.144 0 471.040-204.8 471.040-471.040 0-262.144-208.896-471.040-471.040-471.040zM524.288 450.56c0-16.384 16.384-32.768 32.768-32.768s32.768 16.384 32.768 32.768c0 16.384-16.384 32.768-32.768 32.768s-32.768-16.384-32.768-32.768zM397.312 352.256l-69.632-73.728h401.408l-57.344 73.728h-274.432zM512 921.6c-221.184 0-409.6-184.32-409.6-409.6 0-98.304 36.864-192.512 98.304-262.144l151.552 151.552 139.264 172.032v245.76c-90.112 0-159.744 8.192-159.744 20.48s81.92 20.48 180.224 20.48 180.224-8.192 180.224-20.48-69.632-20.48-159.744-20.48v-233.472l233.472 233.472c-61.44 65.536-155.648 102.4-253.952 102.4zM827.392 774.144l-249.856-245.76 233.472-282.624h-520.192l-40.96-40.96c65.536-57.344 159.744-90.112 262.144-90.112 221.184 0 405.504 184.32 405.504 405.504 0 94.208-32.768 184.32-90.112 253.952z"></path>
</symbol>
<symbol id="icon-no-fishing" viewBox="0 0 1024 1024">
	<title>no-fishing</title>
	<path fill="rgb(88, 87, 71)" class="path1" d="M888.832 0h-753.664c-90.112 0-135.168 45.056-135.168 135.168v761.856c0 86.016 45.056 126.976 135.168 126.976h753.664c86.016 0 135.168-45.056 135.168-135.168v-753.664c-4.096-90.112-49.152-135.168-135.168-135.168z"></path>
	<path fill="rgb(255, 255, 255)" class="path2" d="M835.584 172.032v-172.032h-53.248v126.976c-77.824-53.248-167.936-86.016-270.336-86.016-266.24 0-471.040 212.992-471.040 471.040 0 266.24 204.8 475.136 471.040 475.136 262.144 0 471.040-208.896 471.040-475.136 0-135.168-57.344-253.952-147.456-339.968zM196.608 253.952l217.088 217.088c-49.152 12.288-94.208 32.768-139.264 61.44-32.768 20.48-53.248 32.768-65.536 40.96-12.288-8.192-28.672-20.48-45.056-28.672-12.288-12.288-28.672-24.576-40.96-40.96-8.192-8.192-12.288-12.288-16.384-16.384 4.096-86.016 36.864-172.032 90.112-233.472zM659.456 569.344c0-12.288 4.096-20.48 12.288-32.768 8.192-8.192 16.384-12.288 24.576-12.288s16.384 4.096 24.576 12.288c8.192 8.192 12.288 20.48 12.288 32.768s-4.096 20.48-12.288 28.672c-8.192 8.192-16.384 12.288-24.576 12.288-24.576 0-36.864-12.288-36.864-40.96zM118.784 622.592c-4.096-16.384-8.192-32.768-12.288-49.152 8.192 8.192 12.288 16.384 24.576 24.576-4.096 12.288-8.192 20.48-12.288 24.576zM512 925.696c-159.744 0-299.008-94.208-368.64-233.472 24.576-28.672 45.056-49.152 65.536-65.536 57.344 32.768 94.208 53.248 110.592 61.44 65.536 28.672 139.264 45.056 221.184 45.056h8.192c40.96 0 81.92-4.096 118.784-8.192l102.4 102.4c-65.536 57.344-159.744 98.304-258.048 98.304zM827.392 774.144l-73.728-73.728c53.248-16.384 102.4-45.056 139.264-77.824-49.152-12.288-73.728-20.48-77.824-28.672v0c0-8.192 24.576-20.48 73.728-36.864-20.48-20.48-49.152-40.96-94.208-57.344-32.768-12.288-69.632-24.576-106.496-28.672-40.96-8.192-81.92-12.288-126.976-12.288h-12.288c-16.384 0-28.672 0-45.056 0l-253.952-253.952c69.632-57.344 159.744-90.112 262.144-90.112s200.704 40.96 270.336 106.496v135.168c-16.384 24.576-36.864 36.864-57.344 36.864s-36.864-8.192-53.248-24.576c-16.384-16.384-28.672-36.864-32.768-61.44-8.192-32.768-12.288-45.056-16.384-45.056s-8.192 4.096-16.384 12.288c-4.096 8.192-8.192 20.48-8.192 32.768 0 36.864 12.288 73.728 36.864 102.4s53.248 45.056 90.112 45.056c28.672 0 53.248-8.192 73.728-28.672s32.768-40.96 32.768-65.536v-81.92c49.152 69.632 81.92 151.552 81.92 241.664 4.096 94.208-28.672 188.416-86.016 253.952z"></path>
</symbol>
<symbol id="icon-no-parking" viewBox="0 0 1024 1024">
	<title>no-parking</title>
	<path fill="rgb(88, 87, 71)" class="path1" d="M888.832 0h-753.664c-90.112 0-135.168 45.056-135.168 135.168v757.76c0 86.016 45.056 131.072 135.168 131.072h753.664c86.016 0 135.168-45.056 135.168-135.168v-753.664c-4.096-90.112-49.152-135.168-135.168-135.168z"></path>
	<path fill="rgb(255, 255, 255)" class="path2" d="M512 40.96c-266.24 0-471.040 208.896-471.040 471.040 0 266.24 208.896 471.040 471.040 471.040s471.040-208.896 471.040-471.040-208.896-471.040-471.040-471.040zM512 921.6c-221.184 0-409.6-184.32-409.6-409.6 0-98.304 36.864-192.512 98.304-262.144l151.552 151.552v409.6h131.072v-208.896c12.288 0 24.576 8.192 45.056 8.192 8.192 0 16.384 0 24.576 0l212.992 212.992c-61.44 61.44-155.648 98.304-253.952 98.304zM483.328 434.176v-106.496c8.192 0 24.576-8.192 53.248-8.192 65.536 0 106.496 32.768 106.496 86.016 0 57.344-32.768 90.112-90.112 98.304-8.192 0-16.384 0-24.576 0-20.48 0-32.768 0-45.056-8.192 0 0 0-61.44 0-61.44zM827.392 774.144l-184.32-184.32c28.672-8.192 53.248-24.576 77.824-40.96 32.768-32.768 53.248-77.824 53.248-139.264 0-65.536-20.48-110.592-57.344-143.36-40.96-32.768-98.304-45.056-184.32-45.056-81.92 0-143.36 8.192-180.224 12.288v69.632l-102.4-98.304c69.632-61.44 159.744-94.208 262.144-94.208 221.184 0 405.504 184.32 405.504 405.504 0 98.304-32.768 188.416-90.112 258.048z"></path>
</symbol>
<symbol id="icon-restroom" viewBox="0 0 1024 1024">
	<title>restroom</title>
	<path fill="rgb(88, 87, 71)" class="path1" d="M888.832 0h-753.664c-90.112 0-135.168 45.056-135.168 135.168v761.856c0 86.016 45.056 126.976 135.168 126.976h753.664c86.016 0 135.168-45.056 135.168-135.168v-753.664c-4.096-90.112-49.152-135.168-135.168-135.168z"></path>
	<path fill="rgb(255, 255, 255)" class="path2" d="M458.752 925.696v-827.392l-364.544 139.264v684.032l364.544 4.096zM438.272 569.344l-28.672 12.288-77.824-126.976v28.672l86.016 196.608h-81.92l-24.576 200.704h-49.152l-24.576-196.608h-81.92l90.112-196.608-4.096-32.768-77.824 131.072-32.768-12.288 94.208-229.376h122.88l90.112 225.28zM335.872 274.432c0 16.384-4.096 24.576-16.384 32.768-8.192 16.384-20.48 20.48-36.864 20.48s-28.672-4.096-36.864-20.48c-12.288-8.192-16.384-20.48-16.384-32.768 0-16.384 4.096-24.576 16.384-40.96 8.192-8.192 24.576-16.384 40.96-16.384s24.576 4.096 40.96 16.384c4.096 12.288 8.192 24.576 8.192 40.96zM929.792 925.696v-679.936l-364.544-147.456v827.392h364.544zM864.256 643.072h-24.576l-40.96-118.784v364.544h-40.96l-20.48-192.512-20.48 196.608h-32.768v-364.544l-40.96 122.88h-24.576v-311.296h245.76v303.104zM790.528 274.432c0 16.384-4.096 28.672-16.384 40.96-8.192 8.192-24.576 12.288-36.864 12.288s-24.576-4.096-40.96-16.384c-8.192-8.192-16.384-24.576-16.384-40.96s4.096-24.576 16.384-40.96c8.192-8.192 24.576-16.384 40.96-16.384s28.672 4.096 40.96 16.384c8.192 16.384 12.288 28.672 12.288 45.056z"></path>
</symbol>
<symbol id="icon-scenic-overlook" viewBox="0 0 1024 1024">
	<title>scenic-overlook</title>
	<path fill="rgb(88, 87, 71)" class="path1" d="M888.832 0h-753.664c-90.112 0-135.168 45.056-135.168 135.168v761.856c0 86.016 45.056 126.976 135.168 126.976h753.664c86.016 0 135.168-45.056 135.168-135.168v-753.664c-4.096-90.112-49.152-135.168-135.168-135.168z"></path>
	<path fill="rgb(255, 255, 255)" class="path2" d="M405.504 86.016h-155.648v151.552h-69.632v368.64c-8.192 20.48-20.48 45.056-24.576 86.016v249.856h237.568v-245.76c0-24.576-16.384-53.248-53.248-86.016v-94.208l114.688-4.096v-266.24h-49.152v-159.744z"></path>
	<path fill="rgb(255, 255, 255)" class="path3" d="M843.776 606.208v-368.64h-65.536v-151.552h-155.648v159.744h-53.248v266.24l114.688 4.096v94.208c-36.864 32.768-53.248 61.44-53.248 86.016v245.76h237.568v-249.856c-4.096-40.96-20.48-65.536-24.576-86.016z"></path>
</symbol>
<symbol id="icon-sign" viewBox="0 0 1638 1638">
	<title>sign</title>
	<path fill="rgb(68, 68, 68)" class="path1" d="M0 0h212.992v1024h-212.992v-1024z"></path>
	<path fill="rgb(68, 68, 68)" class="path2" d="M1425.408 0h212.992v1024h-212.992v-1024z"></path>
	<path fill="rgb(140, 0, 0)" class="path3" d="M212.992 98.304h1212.416v618.496h-1212.416v-618.496z"></path>
</symbol>
<symbol id="icon-trail-marker" viewBox="0 0 1024 1024">
	<title>trail-marker</title>
	<path fill="rgb(68, 68, 68)" class="path1" d="M0 0h1024v1024h-1024v-1024z"></path>
	<path fill="rgb(255, 255, 255)" class="path2" d="M901.12 802.816c0 16.384-4.096 28.672-8.192 36.864-4.096 12.288-12.288 24.576-20.48 32.768-20.48 16.384-45.056 28.672-69.632 28.672h-581.632c-24.576 0-49.152-8.192-69.632-28.672-20.48-16.384-28.672-40.96-28.672-69.632v-581.632c0-28.672 8.192-49.152 28.672-69.632 20.48-16.384 40.96-28.672 69.632-28.672h585.728c24.576 0 49.152 8.192 69.632 28.672 8.192 8.192 16.384 16.384 20.48 32.768 0 12.288 4.096 24.576 4.096 36.864v581.632z"></path>
	<path fill="rgb(140, 0, 0)" class="path3" d="M344.064 847.872v-319.488h-167.936l335.872-352.256 335.872 352.256h-167.936v319.488z"></path>
</symbol>
<symbol id="icon-email" viewBox="0 0 1024 1024">
	<title>email</title>
	<path fill="rgb(126, 145, 55)" class="path1" d="M888.832 0h-753.664c-90.112 0-135.168 45.056-135.168 135.168v761.856c0 86.016 45.056 126.976 135.168 126.976h753.664c86.016 0 135.168-45.056 135.168-135.168v-753.664c-4.096-90.112-49.152-135.168-135.168-135.168z"></path>
	<path fill="rgb(255, 255, 255)" class="path2" d="M798.72 294.912h-573.44l286.72 217.088z"></path>
	<path fill="rgb(255, 255, 255)" class="path3" d="M512 602.112l-348.16-266.24v393.216h696.32v-393.216z"></path>
</symbol>
<symbol id="icon-facebook" viewBox="0 0 1024 1024">
	<title>facebook</title>
	<path fill="rgb(12, 81, 163)" class="path1" d="M888.832 0h-753.664c-90.112 0-135.168 45.056-135.168 135.168v761.856c0 86.016 45.056 126.976 135.168 126.976h753.664c86.016 0 135.168-45.056 135.168-135.168v-753.664c-4.096-90.112-49.152-135.168-135.168-135.168z"></path>
	<path fill="rgb(255, 255, 255)" class="path2" d="M704.512 1024v-397.312h131.072l20.48-155.648h-151.552v-98.304c0-45.056 12.288-73.728 77.824-73.728h81.92v-139.264c-12.288 0-61.44-4.096-118.784-4.096-118.784 0-200.704 73.728-200.704 204.8v114.688h-135.168v155.648h135.168v393.216h159.744z"></path>
</symbol>
<symbol id="icon-twitter" viewBox="0 0 1024 1024">
	<title>twitter</title>
	<path fill="rgb(85, 172, 238)" class="path1" d="M888.832 0h-753.664c-90.112 0-135.168 45.056-135.168 135.168v761.856c0 86.016 45.056 126.976 135.168 126.976h753.664c86.016 0 135.168-45.056 135.168-135.168v-753.664c-4.096-90.112-49.152-135.168-135.168-135.168z"></path>
	<path fill="rgb(255, 255, 255)" class="path2" d="M860.16 294.912c-24.576 12.288-53.248 20.48-81.92 20.48 28.672-16.384 53.248-45.056 61.44-77.824-28.672 16.384-57.344 28.672-90.112 32.768-24.576-28.672-61.44-45.056-102.4-45.056-77.824 0-143.36 65.536-143.36 143.36 0 12.288 0 20.48 4.096 32.768-118.784-4.096-225.28-61.44-294.912-147.456-12.288 20.48-20.48 45.056-20.48 73.728 0 49.152 24.576 94.208 65.536 118.784-24.576 0-45.056-8.192-65.536-16.384 0 0 0 0 0 0 0 69.632 49.152 126.976 114.688 139.264-12.288 4.096-24.576 4.096-36.864 4.096-8.192 0-16.384 0-28.672-4.096 16.384 57.344 69.632 98.304 135.168 98.304-49.152 36.864-110.592 61.44-176.128 61.44-12.288 0-24.576 0-32.768 0 61.44 40.96 139.264 65.536 217.088 65.536 262.144 0 405.504-217.088 405.504-405.504 0-8.192 0-12.288 0-20.48 24.576-20.48 49.152-45.056 69.632-73.728z"></path>
</symbol>
<symbol id="icon-arrow" viewBox="0 0 32 32">
<title>arrow</title>
<path class="path1" d="M27.43 6.51l-6.651-6.562-16.209 16 16.209 16 6.651-6.562-9.558-9.438z"></path>
</symbol>
<symbol id="icon-x" viewBox="0 0 32 32">
<title>x</title>
<path fill="#fff" class="path1" d="M32 6.107l-6.107-6.107-9.893 9.893-9.893-9.893-6.107 6.107 9.893 9.893-9.893 9.893 6.107 6.107 9.893-9.893 9.893 9.893 6.107-6.107-9.893-9.893z"></path>
</symbol>
<symbol id="icon-alert" viewBox="0 0 32 32">
<title>alert</title>
<path fill="#FFE2D9" class="path1" d="M20.387 0l-1.302 24.094h-6.17l-1.302-24.094h8.774zM19.733 25.595v6.405h-7.467v-6.405h7.467z"></path>
</symbol>
<symbol id="icon-volunteer" viewBox="0 0 32 32">
<title>volunteer</title>
<path fill="#585747" class="path1" d="M27.775 0h-23.55c-2.818 0-4.225 1.407-4.225 4.225v23.681c0 2.688 1.407 4.094 4.225 4.094h23.55c2.688 0 4.225-1.407 4.225-4.225v-23.55c-0.125-2.818-1.537-4.225-4.225-4.225z"></path>
<path fill="#fff" class="path2" d="M21.616 6.452c0 0-3.953-0.413-5.616 4.732-1.663-5.145-5.616-4.732-5.616-4.732s-5.616 0.105-5.616 5.396 11.231 14.123 11.231 14.123 11.231-8.826 11.231-14.123-5.616-5.396-5.616-5.396z"></path>
</symbol>
<symbol id="icon-rec-center" viewBox="0 0 32 32">
<title>rec-center</title>
<path class="path1" fill="#f15822" d="M27.778 0h-23.556c-2.811 0-4.222 1.411-4.222 4.222v23.678c0 2.689 1.411 4.1 4.222 4.1h23.556c2.689 0 4.222-1.411 4.222-4.222v-23.556c-0.122-2.811-1.533-4.222-4.222-4.222z"></path>
<path class="path2" fill="#fff" d="M16 4.533l2.844 8.767 9.211-0.011-7.456 5.422 2.856 8.756-7.456-5.422-7.456 5.422 2.856-8.756-7.456-5.422 9.211 0.011z"></path>
</symbol>	
<symbol id="icon-drone" viewBox="0 0 32 32">
<title>drone</title>
<path fill="#684c2b" class="path1" d="M27.775 0h-23.55c-2.818 0-4.225 1.407-4.225 4.225v23.681c0 2.688 1.407 4.094 4.225 4.094h23.55c2.688 0 4.225-1.407 4.225-4.225v-23.55c-0.125-2.818-1.537-4.225-4.225-4.225z"></path>
<path fill="#fff" class="path2" d="M23.932 18.583c-1.239 0-2.384 0.424-3.294 1.135-1.051-1.427-1.935-2.876-1.935-3.671 0-0.81 0.91-2.285 1.982-3.733 0.899 0.69 2.029 1.103 3.247 1.103 2.949 0 5.349-2.4 5.349-5.349s-2.4-5.349-5.349-5.349-5.349 2.4-5.349 5.349c0 1.271 0.444 2.437 1.187 3.352-1.443 1.067-2.912 1.971-3.718 1.971-0.821 0-2.316-0.931-3.78-2.013 0.722-0.91 1.15-2.060 1.15-3.31 0-2.949-2.4-5.349-5.349-5.349-2.954 0-5.354 2.4-5.354 5.349s2.4 5.349 5.349 5.349c1.25 0 2.4-0.429 3.31-1.15 1.082 1.464 2.013 2.965 2.013 3.78 0 0.805-0.905 2.274-1.971 3.718-0.92-0.742-2.086-1.187-3.352-1.187-2.949 0.005-5.349 2.405-5.349 5.354s2.4 5.349 5.349 5.349 5.349-2.4 5.349-5.349c0-1.218-0.413-2.348-1.103-3.247 1.448-1.067 2.923-1.982 3.733-1.982 0.8 0 2.243 0.884 3.671 1.935-0.711 0.91-1.135 2.050-1.135 3.294 0 2.949 2.4 5.349 5.349 5.349s5.349-2.4 5.349-5.349-2.4-5.349-5.349-5.349zM19.629 8.068c0-2.374 1.929-4.303 4.303-4.303s4.303 1.929 4.303 4.303-1.929 4.303-4.303 4.303c-0.983 0-1.893-0.335-2.614-0.889 0.847-1.088 1.699-2.086 2.217-2.672 0.125 0.073 0.267 0.11 0.418 0.11 0.089 0 0.178-0.016 0.261-0.042 0.11 0.099 0.22 0.199 0.329 0.293 0.146 0.126 0.293 0.246 0.434 0.356s0.277 0.214 0.403 0.303c0.125 0.094 0.246 0.173 0.35 0.246s0.204 0.131 0.282 0.178c0.157 0.094 0.256 0.146 0.256 0.146s-0.047-0.099-0.146-0.256c-0.047-0.078-0.11-0.173-0.178-0.282-0.073-0.105-0.152-0.225-0.246-0.35s-0.193-0.261-0.303-0.403c-0.11-0.141-0.23-0.282-0.356-0.434-0.094-0.11-0.193-0.22-0.293-0.329 0.026-0.084 0.042-0.173 0.042-0.267 0-0.46-0.376-0.837-0.837-0.837-0.094 0-0.183 0.016-0.267 0.042-0.12-0.11-0.246-0.22-0.366-0.324-0.293-0.251-0.58-0.476-0.831-0.664-0.251-0.183-0.476-0.329-0.633-0.424s-0.256-0.146-0.256-0.146 0.047 0.099 0.146 0.256c0.094 0.157 0.241 0.382 0.424 0.633s0.408 0.539 0.664 0.831c0.105 0.12 0.214 0.246 0.324 0.366-0.026 0.084-0.042 0.167-0.042 0.261 0 0.183 0.058 0.356 0.162 0.492-0.596 0.523-1.59 1.37-2.672 2.217-0.612-0.732-0.978-1.684-0.978-2.714zM8.068 12.371c-2.374 0-4.303-1.929-4.303-4.303s1.929-4.303 4.303-4.303 4.303 1.929 4.303 4.303c0 1.009-0.35 1.94-0.936 2.677-1.098-0.858-2.097-1.715-2.672-2.217 0.078-0.126 0.126-0.277 0.126-0.439 0-0.094-0.016-0.183-0.042-0.267 0.11-0.12 0.22-0.246 0.324-0.366 0.251-0.293 0.476-0.58 0.664-0.831 0.183-0.251 0.329-0.476 0.424-0.633s0.146-0.256 0.146-0.256-0.099 0.047-0.256 0.146c-0.157 0.094-0.382 0.241-0.633 0.424s-0.539 0.408-0.831 0.664c-0.12 0.105-0.246 0.214-0.366 0.324-0.084-0.026-0.167-0.042-0.261-0.042-0.46 0-0.837 0.376-0.837 0.837 0 0.089 0.016 0.178 0.042 0.261-0.099 0.11-0.199 0.22-0.293 0.329-0.125 0.146-0.246 0.293-0.356 0.434s-0.214 0.277-0.303 0.403c-0.094 0.126-0.173 0.246-0.246 0.35s-0.131 0.204-0.178 0.282c-0.094 0.157-0.146 0.256-0.146 0.256s0.099-0.047 0.256-0.146c0.078-0.047 0.173-0.11 0.282-0.178 0.105-0.073 0.225-0.152 0.35-0.246s0.261-0.193 0.403-0.303c0.141-0.11 0.282-0.23 0.434-0.356 0.11-0.094 0.22-0.193 0.329-0.293 0.084 0.026 0.173 0.042 0.267 0.042 0.178 0 0.345-0.058 0.481-0.152 0.507 0.575 1.359 1.569 2.212 2.661-0.748 0.586-1.678 0.936-2.688 0.936zM12.371 23.932c0 2.374-1.929 4.303-4.303 4.303s-4.303-1.929-4.303-4.303 1.929-4.303 4.303-4.303c1.030 0 1.982 0.366 2.724 0.973-0.847 1.088-1.699 2.081-2.217 2.677-0.141-0.105-0.314-0.167-0.502-0.167-0.089 0-0.173 0.016-0.256 0.042-0.12-0.11-0.241-0.22-0.361-0.319-0.293-0.251-0.58-0.476-0.831-0.664-0.251-0.183-0.476-0.329-0.633-0.424s-0.256-0.146-0.256-0.146 0.047 0.099 0.146 0.256c0.094 0.157 0.241 0.382 0.424 0.633s0.408 0.539 0.664 0.831c0.099 0.115 0.209 0.235 0.314 0.356-0.031 0.084-0.047 0.178-0.047 0.272 0 0.46 0.376 0.837 0.837 0.837 0.094 0 0.188-0.016 0.272-0.047 0.11 0.105 0.225 0.204 0.335 0.298 0.146 0.125 0.293 0.246 0.434 0.356s0.277 0.214 0.403 0.303c0.126 0.094 0.246 0.173 0.35 0.246s0.204 0.131 0.282 0.178c0.157 0.094 0.256 0.146 0.256 0.146s-0.047-0.099-0.146-0.256c-0.047-0.078-0.11-0.173-0.178-0.282-0.073-0.105-0.152-0.225-0.246-0.35s-0.193-0.261-0.303-0.403-0.23-0.282-0.356-0.434c-0.094-0.115-0.199-0.225-0.303-0.34 0.026-0.078 0.042-0.167 0.042-0.256 0-0.146-0.037-0.288-0.105-0.408 0.591-0.518 1.59-1.375 2.682-2.222 0.544 0.727 0.878 1.637 0.878 2.62zM23.932 28.235c-2.374 0-4.303-1.929-4.303-4.303 0-1.004 0.345-1.929 0.925-2.661 1.072 0.831 2.065 1.678 2.672 2.212-0.094 0.136-0.146 0.298-0.146 0.471 0 0.089 0.016 0.178 0.042 0.261-0.099 0.11-0.199 0.22-0.293 0.329-0.125 0.146-0.246 0.293-0.356 0.434s-0.214 0.277-0.303 0.403c-0.094 0.125-0.173 0.246-0.246 0.35s-0.131 0.204-0.178 0.282c-0.094 0.157-0.146 0.256-0.146 0.256s0.099-0.047 0.256-0.146c0.078-0.047 0.173-0.11 0.282-0.178 0.105-0.073 0.225-0.152 0.35-0.246s0.261-0.193 0.403-0.303 0.282-0.23 0.434-0.356c0.11-0.094 0.22-0.193 0.329-0.293 0.084 0.026 0.173 0.042 0.267 0.042 0.46 0 0.837-0.376 0.837-0.837 0-0.094-0.016-0.183-0.042-0.267 0.11-0.12 0.22-0.246 0.324-0.366 0.251-0.293 0.476-0.58 0.664-0.831 0.183-0.251 0.329-0.476 0.424-0.633s0.146-0.256 0.146-0.256-0.099 0.047-0.256 0.146c-0.157 0.094-0.382 0.241-0.633 0.424s-0.539 0.408-0.831 0.664c-0.12 0.105-0.246 0.214-0.366 0.324-0.084-0.026-0.167-0.042-0.261-0.042-0.157 0-0.303 0.042-0.429 0.12-0.533-0.607-1.38-1.6-2.217-2.677 0.732-0.58 1.658-0.925 2.661-0.925 2.374 0 4.303 1.929 4.303 4.303s-1.94 4.298-4.314 4.298z"></path>
</symbol>
<symbol id="icon-dog-leash" viewBox="0 0 32 32">
<title>dog-leash</title>
<path fill="#585747" class="path1 fill-color1" d="M27.775 0h-23.55c-2.818 0-4.225 1.407-4.225 4.225v23.681c0 2.688 1.407 4.094 4.225 4.094h23.55c2.688 0 4.225-1.407 4.225-4.225v-23.55c-0.125-2.818-1.537-4.225-4.225-4.225z"></path>
<path fill="#fff" class="path2 fill-color2" d="M27.655 12.11c-0.831-0.722-0.936-1.548-2.144-1.736-0.146-0.021-0.303-0.052-0.46-0.089-0.157-1.025 0.633-2.186 0.633-2.186-1.888 0.544-3.122 2.238-3.686 3.184-0.308 0.376-0.612 0.769-0.863 1.082 0.455 0.737 1.647 2.363 3.932 3.754 0.021-0.031 0.047-0.058 0.068-0.084 0.727-0.852 1.307-1.088 2.4-1.291 1.103-0.204 2.745 0.094 2.714-1.511-0.005-0.701-2.112-0.711-2.593-1.124z"></path>
<path fill="#fff" class="path3 fill-color2" d="M21.129 12.356l-11.461-12.356h-1.553l12.146 13.213c0.115-0.078 0.23-0.162 0.335-0.251 0.115-0.094 0.303-0.319 0.533-0.607z"></path>
<path fill="#fff" class="path4 fill-color2" d="M20.261 13.224c-2.824 1.898-7.995 0.303-11.101 0.863-1.229 0.22-2.583 0.601-3.357 1.658-0.711 0.973-1.124 2.29-1.773 3.326-0.779 1.239-1.668 2.4-2.531 3.582 2.060-1.061 3.519-2.599 4.607-4.868-0.021 0.183-0.037 0.361-0.058 0.544-0.084 1.129 0.675 1.945 0.669 3.075 0 0.946-0.701 1.616-0.946 2.494-0.23 0.826-0.125 1.59-0.188 2.426-0.068 0.863 0.34 1.307 1.234 1.542 0.246 0.063 2.212 0.261 1.365-0.392-0.638-0.491-1.103-0.622-1.161-1.459-0.042-0.607 0.010-1.401 0.627-1.715 1.281-0.648 2.573-0.763 3.618-1.882 0.335-0.356 0.612-0.758 0.842-1.187 0.010-0.026 0.026-0.047 0.037-0.068 0 0 0.68-1.328 0.502-1.757 0 0 0.858 0.241 0.387 1.454 0.115 0.037 0.251 0.073 0.408 0.099 0.816 0.141 1.642 0.225 2.468 0.277 1.15 0.073 2.233 0.052 3.294 0.554 0.8 0.376 0.91 1.841 1.088 2.62 0.251 1.093 0.763 1.349 1.145 2.39 0.424 1.156 0.988 1.443 2.154 1.443 1.051-0.099 0.335-0.633-0.214-1.025-1.579-1.135-1.051-2.238-0.91-3.958 0.152-1.783 1.485-2.928 1.94-4.643 0.131-0.491 0.146-0.837 0.23-1.312-1.187-0.669-3.080-2.112-4.376-4.078z"></path>
</symbol>
<symbol id="icon-search" viewBox="0 0 32 32">
<title>search</title>
<path class="path1" fill="#fff" d="M32 27.937l-10.742-10.742c2.573-4.375 1.982-10.096-1.773-13.853-2.229-2.228-5.15-3.343-8.071-3.343s-5.843 1.115-8.071 3.344c-4.457 4.457-4.457 11.684 0 16.142 2.229 2.229 5.15 3.344 8.071 3.344 2.002 0 4.003-0.523 5.781-1.569l10.742 10.741 4.063-4.063zM12.744 18.229c-0.437 0.084-0.884 0.128-1.33 0.128s-0.894-0.043-1.33-0.128c-0.44-0.085-0.871-0.213-1.284-0.381-0.858-0.348-1.631-0.861-2.294-1.525s-1.177-1.436-1.525-2.294c-0.168-0.413-0.295-0.845-0.381-1.284-0.084-0.437-0.128-0.884-0.128-1.33s0.043-0.894 0.128-1.33c0.085-0.44 0.213-0.871 0.381-1.284 0.348-0.858 0.861-1.631 1.525-2.294s1.436-1.177 2.294-1.525c0.413-0.168 0.845-0.295 1.284-0.381 0.437-0.084 0.884-0.128 1.33-0.128s0.894 0.043 1.33 0.128c0.44 0.085 0.871 0.213 1.284 0.381 0.858 0.348 1.631 0.861 2.294 1.525s1.177 1.436 1.525 2.294c0.168 0.413 0.295 0.845 0.381 1.284 0.084 0.437 0.128 0.884 0.128 1.33s-0.043 0.894-0.128 1.33c-0.085 0.44-0.213 0.871-0.381 1.284-0.348 0.858-0.861 1.631-1.525 2.294s-1.436 1.177-2.294 1.525c-0.413 0.168-0.845 0.295-1.284 0.381z"></path>
</symbol>
</defs>
</svg>
