<?xml version="1.0" encoding="utf-8"?>
<!-- Generator: Adobe Illustrator 18.0.0, SVG Export Plug-In . SVG Version: 6.00 Build 0)  -->
<!DOCTYPE svg PUBLIC "-//W3C//DTD SVG 1.1//EN" "http://www.w3.org/Graphics/SVG/1.1/DTD/svg11.dtd">
<svg version="1.1" id="Layer_1" xmlns="http://www.w3.org/2000/svg" xmlns:xlink="http://www.w3.org/1999/xlink" x="0px" y="0px"
	 viewBox="0 0 25 25" enable-background="new 0 0 25 25" xml:space="preserve">
<path fill="#2E5122" d="M21.7,0H3.3C1.1,0,0,1.1,0,3.3v18.6C0,24,1.1,25,3.3,25h18.4c2.1,0,3.3-1.1,3.3-3.3V3.3
	C24.9,1.1,23.8,0,21.7,0z"/>
<path fill="#FFFFFF" d="M14.7,17.3c2.3-1.5,3.9-5.8,3.9-11l0,0V5.7h-4.7c0.6-0.4,1-1,1-1.7c0-1.1-0.9-2-2-2s-2,0.9-2,2
	c0,0.7,0.4,1.4,1,1.7H7.1v0.4l0,0c0,0,0,0,0,0.1v0.1l0,0c0,5.2,1.6,9.5,3.9,11H4.6l0.7,3.5h6.9v2.6h1.2v-2.6H20l0.8-3.5H14.7z
	 M7.7,6.3h0.9c0,4.3,0.8,8,2,10C8.9,14.5,7.7,10.7,7.7,6.3z M9.2,6.3h1c0,3.4,0.4,7.9,1.3,10.2C10.3,14.9,9.3,11.2,9.2,6.3z
	 M5.8,20.2l-0.5-2.3h1.5l0.5,2.3H5.8z M7.9,20.2l-0.5-2.3h2l0.5,2.3H7.9z M12.2,20.2h-1.7L10,17.9h2.2V20.2z M12.2,16.7
	c-0.7-1.5-1.3-5.2-1.4-10.4h1.4V16.7z M18,6.3c0,4.4-1.2,8.2-2.9,9.9c1.2-2,2-5.7,2-9.9C17.1,6.3,18,6.3,18,6.3z M16.4,6.3
	c0,5-1.1,8.8-2.4,10.3c0.9-2.2,1.3-6.8,1.3-10.3H16.4z M13.4,6.3h1.3c0,5.1-0.7,8.9-1.4,10.3L13.4,6.3z M15,20.2h-1.6v-2.3h2.1
	L15,20.2z M17.5,20.2h-1.9l0.5-2.3H18L17.5,20.2z M19.6,20.2h-1.5l0.5-2.3h1.5L19.6,20.2z"/>
</svg>
