<?xml version="1.0" encoding="utf-8"?>
<!-- Generator: Adobe Illustrator 18.0.0, SVG Export Plug-In . SVG Version: 6.00 Build 0)  -->
<!DOCTYPE svg PUBLIC "-//W3C//DTD SVG 1.1//EN" "http://www.w3.org/Graphics/SVG/1.1/DTD/svg11.dtd">
<svg version="1.1" id="Layer_1" xmlns="http://www.w3.org/2000/svg" xmlns:xlink="http://www.w3.org/1999/xlink" x="0px" y="0px"
	 viewBox="0 0 25 25" enable-background="new 0 0 25 25" xml:space="preserve">
<path fill="#2E5122" d="M21.7,0H3.3C1.1,0,0,1.1,0,3.3v18.6C0,24,1.1,25,3.3,25h18.4c2.1,0,3.3-1.1,3.3-3.3V3.3
	C24.9,1.1,23.8,0,21.7,0z"/>
<path fill="#FFFFFF" d="M19.7,4.6c-0.7-0.2-0.6-1.5-0.6-1.5h-5.6H7.6l0.1,3.8h2.9V6.8c-1.6-0.5-1.2-3,0.6-3.1c1,0,1.8,0.8,1.6,1.9
	l-0.1,0.2L12.6,6l-0.2,0.3l-0.2,0.2L12,6.7l-0.3,0.1v0.1h0.7L12.6,7l0.1,0.2l0.2,0.1L13,7.4v0.1v0.2V8l-3.6,5.5l3.3,9.7H11l-3.3-8.1
	v8.1H6.1v-9.7l3.3-4.9H6.1V3.7V3.3l0.2-0.5l0.1-0.2l0.2-0.3l0.2-0.2L7,1.9l0.3-0.1h0.3v0.3c0,0,2.8,0,5.7,0s6,0,6.3,0
	c0.2,0,1,0.1,1.1,0.7C20.9,2.9,21.1,4.9,19.7,4.6z"/>
</svg>
