<?xml version="1.0" encoding="utf-8"?>
<!-- Generator: Adobe Illustrator 18.0.0, SVG Export Plug-In . SVG Version: 6.00 Build 0)  -->
<!DOCTYPE svg PUBLIC "-//W3C//DTD SVG 1.1//EN" "http://www.w3.org/Graphics/SVG/1.1/DTD/svg11.dtd">
<svg version="1.1" id="Layer_1" xmlns="http://www.w3.org/2000/svg" xmlns:xlink="http://www.w3.org/1999/xlink" x="0px" y="0px"
	 viewBox="0 0 25 25" enable-background="new 0 0 25 25" xml:space="preserve">
<path fill="#684C2B" d="M21.7,0H3.3C1.1,0,0,1.1,0,3.3v18.5C0,23.9,1.1,25,3.3,25h18.4c2.1,0,3.3-1.1,3.3-3.3V3.3
	C24.9,1.1,23.8,0,21.7,0z"/>
<g>
	<path fill="#FFFFFF" d="M16.8,4.7c0,0,0-0.1,0.1,0c0.1,0.1,2.8,1.4,2.9,1.4c0.1,0,0.3,0.2,0.1,0.5c-0.3,0.5-0.8,0-0.8,0
		s-2-1.6-2.3-1.7C16.7,4.9,16.8,4.7,16.8,4.7z M15.7,3.5c0.5,0,0.7,0.3,0.7,0.7c0,0.5-0.3,0.7-0.7,0.7c-0.5,0-0.7-0.2-0.7-0.7
		S15.3,3.5,15.7,3.5z M11.6,1.7c0.3-0.5,0.8,0,0.8,0s2,1.6,2.3,1.7c0.1,0.1,0,0.1,0,0.1s0,0.1-0.1,0s-2.8-1.4-2.9-1.4
		C11.6,2.2,11.3,2,11.6,1.7z M2.8,4.7C3,4.4,3.9,5,3.9,5S9,7.3,9.7,7.6C10,7.8,9.8,7.9,9.8,7.9S9.7,8.1,9.4,8
		c-0.2-0.1-5.9-2.4-6-2.4C3.2,5.4,2.4,5.2,2.8,4.7z M2.4,6.6c0.2,0.1,5.2,3.1,5.2,3.2c0.1,0.1,0.8,0.5,0.7,0.9
		c-0.2,0.5-1.2-0.1-1.2-0.1S2.7,7.5,2,7.2C1.9,7.1,1.9,6.7,1.9,6.7S2.1,6.5,2.4,6.6z M1.4,17l0.1-0.5C2,16,3.5,16.7,4.2,17l-0.5,0.6
		c-0.9-0.5-1.5-0.8-1.6-0.7c0,0.1,0.5,0.5,1.4,1l-0.3,0.6C2.8,18.4,1.5,17.6,1.4,17z M2.5,21.3C2.4,21.2,2.4,21,2.4,21l9.8-16.2
		c0,0,0.2-0.5,0.5-0.5c0.1-0.1,0.6,0.1,0.6,0.1l1.4,0.8l1.5,0.9c0,0,0.5,0.3,0.5,0.7c-0.1,0.3-0.7,1-0.7,1L2.9,21.3
		C2.9,21.3,2.8,21.5,2.5,21.3z M8,20.7c-0.5,0.6-2-0.2-2.7-0.6l0.5-0.6c0.9,0.5,1.6,0.8,1.6,0.7s-0.5-0.5-1.4-1l0.5-0.6
		c0.2,0.1,1.6,0.9,1.6,1.6L8,20.7z M14.8,21.9c0.2-2.4,1.6-4.5,3.6-5.7c-0.1,0-0.1,0-0.2,0c-0.1,0-0.7-0.3-1.7-0.7l-1.6,1.6
		c-0.9,1.2-1.6,2.3-2,4.3L12,21.2c0.6-2.5,2.1-4.6,3.6-6l0.2,0.1c-1.5-0.7-3.2-1.5-3.4-1.5c-0.1-0.1-0.8-0.3-0.7-0.8s1,0,1,0
		s1.6,0.9,3.4,1.6c0.5-0.3,0.9-0.7,1.5-1c-1.4-1-3.4-2.5-3.7-2.8c-0.2-0.2,0-0.5,0-0.5s0,0,0.3,0.1c0.2,0.1,2.5,1.6,4.1,2.7l0.1,0.1
		c1.2-0.5,2.8-0.7,4.1-0.8l0.1,0.9c-1.2,0-2.2,0.2-3.1,0.6l0.2,0.1c0.1,0.1,0.8,0.6,0.5,0.9c-0.5,0.2-1-0.5-1-0.5s-0.1-0.1-0.5-0.3
		L18,14.4c-0.5,0.2-0.2,0.1-0.7,0.5c0,0,1.2,0.6,1.4,0.7c0.2,0.1,0.2,0.2,0.3,0.3c1-0.6,2.2-0.9,3.5-0.9c0.1,0,0.3,0,0.5,0v1
		c-0.1-0.1-0.3-0.1-0.6-0.1c-3.5,0-6.2,2.7-6.6,6H14.8z M18.3,22.6l-0.7-0.1c0.3-2.7,2.5-4.9,5.3-4.9c0.1,0,0.2,0,0.3,0l0.1,0.7
		c-0.1,0-0.2,0-0.5,0C20.5,18.3,18.4,20.1,18.3,22.6z M23.5,20.4c-1.6,0-2.8,1.3-3,2.8H20c0.1-1.7,1.6-3.1,3.5-3.1h0.2l0.1,0.5h-0.3
		C23.5,20.6,23.5,20.4,23.5,20.4z"/>
</g>
</svg>
