<?xml version="1.0" encoding="utf-8"?>
<!-- Generator: Adobe Illustrator 18.0.0, SVG Export Plug-In . SVG Version: 6.00 Build 0)  -->
<!DOCTYPE svg PUBLIC "-//W3C//DTD SVG 1.1//EN" "http://www.w3.org/Graphics/SVG/1.1/DTD/svg11.dtd">
<svg version="1.1" id="Layer_1" xmlns="http://www.w3.org/2000/svg" xmlns:xlink="http://www.w3.org/1999/xlink" x="0px" y="0px"
	 viewBox="0 0 25 25" enable-background="new 0 0 25 25" xml:space="preserve">
<path fill="#ED2124" d="M21.7,0H3.3C1.1,0,0,1.1,0,3.3v18.6C0,24,1.1,25,3.3,25h18.4c2.1,0,3.3-1.1,3.3-3.3V3.3
	C24.9,1.1,23.8,0,21.7,0z"/>
<path fill="#FFFFFF" d="M18.2,9.5c-0.3,0.6-0.9,1.4-1.1,1.5c-0.3,0.3-1.7,1.2-2,1.4c-0.2,0.2-0.6,0.7-0.5,1c0,0.3,0.3,0.2,0.7,0.2
	s1.5-0.2,1.7,0.2c0.2,0.3-0.2,0.9-0.4,1c-0.3,0.3-1.5,0.9-1.9,1.1c-0.3,0.2-0.6,0.5-0.5,0.8c0.1,0.3,0.3,0.2,0.4,0.3
	c0.3,0,0.5,0.1,0.5,0.3c0,0.2-0.3,0.6-0.6,0.8c-0.3,0.3-1,1.5-1.1,1.7c0,0.2-0.5,1.2-0.5,1.4c0,0.1-0.3,0.9-0.2,1.3
	c0,0.3,0.1,1,0.2,1.1c0.1,0.2,0.3,0.3-0.2,0.3c0,0-0.1,0.1-0.2,0.2c-0.1,0-0.3-0.2-0.2-0.9c0.1-0.7,0.2-0.9,0-1.3
	c-0.2-0.5-0.9-1.9-1-2.1c-0.2-0.3-1-1.2-1.2-1.4c-0.3-0.2-0.6-0.6-0.2-0.8c0.5-0.3,0.7-0.2,0.7-0.4c-0.1-0.2-0.5-0.6-0.9-0.8
	c-0.4-0.3-1.3-0.9-1.5-1.2c-0.3-0.3-0.3-0.7-0.2-0.9C8.1,14.1,8.5,14,9,14c0.5,0.2,1.2,0.6,1.3,0.4c0.1-0.3-0.2-0.8-0.4-1
	c-0.3-0.3-1.3-1-1.6-1.2c-0.3-0.3-1.1-1.3-1.2-1.5S6.3,9.3,6.6,8.9c0.4-0.4,1-0.2,1.1-0.1c0.3,0.1,1.5,1,1.8,1.1
	C9.6,10,10,10.1,10.1,10c0-0.1,0.1-0.3-0.3-0.6c-0.4-0.3-1.5-1-1.7-1.3c-0.3-0.3-1.2-1.5-1.3-2c0-0.3,0-0.7,0.2-0.8
	c0.2-0.2,1-0.1,1.4,0.1c0.4,0.3,1.3,0.7,1.5,0.8c0.3,0.1,0.5,0.2,0.6-0.1c0-0.3-0.1-0.9-0.3-1.4C10,4.2,9.5,3.2,9.5,2.9
	c0-0.3-0.1-0.5,0.1-0.6c0.2-0.2,0.4-0.1,0.6,0c0.3,0.1,0.5,0.1,0.6-0.3C11,1.7,11,1,11.4,1c0.2,0,0.3,0.1,0.3,0.3
	c0.2,0.3,0.3,1,0.7,1c0.1,0,0.1,0,0.1,0c0.3-0.1,0.7-0.5,0.9-0.4s0.4,0.3,0.4,0.9c0.1,0.7-0.3,1.7-0.3,2.1c-0.1,0.3-0.3,0.9-0.1,1.1
	c0.3,0.2,0.8-0.4,0.9-0.7c0.2-0.3,1-1.1,1.5-1.2c0.4-0.1,0.6-0.1,0.8,0c0.2,0.1,0.3,0.7,0.2,1.1S16.3,6.7,16,7
	c-0.3,0.4-0.9,1.3-1,1.5c-0.2,0.3-0.4,0.8-0.3,0.9c0.2,0.2,0.6,0,0.9-0.3c0.4-0.3,1.4-0.9,1.7-1c0.3-0.1,0.9-0.2,1.1,0
	C18.5,8.3,18.5,8.9,18.2,9.5z"/>
</svg>
