<?xml version="1.0" encoding="utf-8"?>
<!-- Generator: Adobe Illustrator 18.0.0, SVG Export Plug-In . SVG Version: 6.00 Build 0)  -->
<!DOCTYPE svg PUBLIC "-//W3C//DTD SVG 1.1//EN" "http://www.w3.org/Graphics/SVG/1.1/DTD/svg11.dtd">
<svg version="1.1" id="Layer_1" xmlns="http://www.w3.org/2000/svg" xmlns:xlink="http://www.w3.org/1999/xlink" x="0px" y="0px"
	 viewBox="0 0 25 25" enable-background="new 0 0 25 25" xml:space="preserve">
<path fill="#F15822" d="M21.7,0H3.3C1.1,0,0,1.1,0,3.3v18.5C0,24,1.1,25,3.3,25h18.4c2.1,0,3.3-1.1,3.3-3.3V3.3
	C24.9,1.1,23.8,0,21.7,0z"/>
<g>
	<path fill="#FFFFFF" d="M15.4,10.6l0.5-0.1h0.2h0.1l0.2,0.2c0.1,0.2,0.3,0.4,0.6,0.5c0.5,0.2,0.9,0.2,1.2-0.1l0.1-0.1
		c0.2-0.3,0.4-0.5,0.2-0.7h-0.1c-0.2-0.1-0.3-0.2-0.3-0.2C18,10,17.8,9.9,17.8,9.7l-0.2-0.4c-0.1-0.4-0.3-0.7-0.4-1l0.1-0.2l0.2-0.2
		c0.2-0.3,0.2-0.6,0.1-0.8L17.5,7c-0.2-0.1-0.4,0-0.6,0.2l-0.3,0.3L16,7.8l-1,0.5l-0.8,0.6c0.1,0.4,0.3,0.9,0.6,1.2
		C15.1,10.6,15.1,10.6,15.4,10.6z"/>
	<path fill="#FFFFFF" d="M16.1,16.6c-0.3-0.1-0.7-0.7-0.9-1.1l-0.3-1.2l-0.5-0.7L14,13.8l-0.4,0.1V14c0.1,0.3,0.3,0.8,0.6,1.5
		l0.2,0.3c0.1,0.3,0.1,0.4,0.2,0.5c0.3,0.4,0.5,1,1.1,0.9c0.1,0,0.2,0,0.3-0.1c0.2-0.1,0.2-0.2,0.2-0.4
		C16.3,16.8,16.3,16.6,16.1,16.6z"/>
	<path fill="#FFFFFF" d="M18.6,15.3L18,14.8c-0.6-0.4-0.9-0.6-1.5-1.3l-0.3-0.3c-0.9-0.9-1-1.5-1.1-2c-0.3-0.1-0.3-0.1-0.7-0.6
		c-0.3-0.4-0.6-0.8-0.7-1.3c0,0-1.2,0.3-1.6,0.4l-0.8,0.2l-1.8,0L7.7,9.6L6.3,9.4c-0.5,0-1-0.2-1.5-0.3C4.6,9,3.8,8.6,3.6,8.8
		l-0.4,0c0.2,1,1.4,1.1,2.2,1.3c0.1,0,0.2,0.1,0.3,0.2c-0.4,0.3-1.2,1.1-1.5,1.7l-0.3,0.8l-0.2,0.8C3.6,14.2,3,14.1,3,14.1
		c-0.3,0.5-1.2,1-1.2,1.2c-0.1,0.7-0.1,0.8,0,1.1s0.9,0.5,0.9,0.1c0-0.3,0.3-1.1,0.5-1.3L3.7,15c0.1-0.1,0.9-0.3,0.9-0.3L5.3,14
		l-0.2-0.6L5,12.7V12l0.2-0.1v0.3L5.3,13l0.2,0.6l0.2,0.6L5,15.8l-0.2,0.3v0.1l1,1.6L5.9,18h0.8l0.1-0.1v-0.2l-0.1-0.2l-0.5-0.3
		l-0.5-1V16l0.6-0.6l0.8-0.6l0.7-0.5l0.4-0.7v-0.7l0.2-0.2c0.7,0.3,3.9,1.4,5.3,1.1l0.6-0.3l0.2-0.1l0.5,0.8l2.4,1.3
		c0.4,0.3,0.5,0.5,0.6,0.8s0.2,0.4,0.5,0.5c0.2,0,0.5,0.1,0.7,0s0.3-0.5,0.1-0.6C19.1,16.1,18.7,15.8,18.6,15.3z"/>
	<circle fill="#FFFFFF" cx="22.5" cy="16.3" r="0.9"/>
</g>
</svg>
