<?xml version="1.0" encoding="utf-8"?>
<!-- Generator: Adobe Illustrator 18.0.0, SVG Export Plug-In . SVG Version: 6.00 Build 0)  -->
<!DOCTYPE svg PUBLIC "-//W3C//DTD SVG 1.1//EN" "http://www.w3.org/Graphics/SVG/1.1/DTD/svg11.dtd">
<svg version="1.1" id="Layer_1" xmlns="http://www.w3.org/2000/svg" xmlns:xlink="http://www.w3.org/1999/xlink" x="0px" y="0px"
	 viewBox="0 0 25 25" enable-background="new 0 0 25 25" xml:space="preserve">
<path fill="#585747" d="M21.7,0H3.3C1.1,0,0,1.1,0,3.3v18.5C0,24,1.1,25,3.3,25h18.4c2.1,0,3.3-1.1,3.3-3.3V3.3
	C24.9,1.1,23.8,0,21.7,0z"/>
<path fill="#FFFFFF" d="M5.4,10.4v-1H1.6v0.9C1.6,10.4,5.4,10.4,5.4,10.4z M23.3,13.3v-1.6h-5.4l-1.4-5h2.6V4.9h-13v1.7h2.7l-1.6,5
	H1.6v1.6h5.3L5.2,20h2l2-6.7h6.9l2.2,6.7h1.9l-1.7-6.7H23.3L23.3,13.3z M15.6,11.8H9.7l1.2-5h3.4L15.6,11.8z M23.4,10.6v-1h-3.9v0.9
	h3.9V10.6z"/>
</svg>
