<?xml version="1.0" encoding="utf-8"?>
<!-- Generator: Adobe Illustrator 18.0.0, SVG Export Plug-In . SVG Version: 6.00 Build 0)  -->
<!DOCTYPE svg PUBLIC "-//W3C//DTD SVG 1.1//EN" "http://www.w3.org/Graphics/SVG/1.1/DTD/svg11.dtd">
<svg version="1.1" id="Layer_1" xmlns="http://www.w3.org/2000/svg" xmlns:xlink="http://www.w3.org/1999/xlink" x="0px" y="0px"
	 viewBox="0 0 25 25" enable-background="new 0 0 25 25" xml:space="preserve">
<path fill="#585747" d="M21.7,0H3.3C1.1,0,0,1.1,0,3.3v18.6C0,24,1.1,25,3.3,25h18.4c2.1,0,3.3-1.1,3.3-3.3V3.3
	C24.9,1.1,23.8,0,21.7,0z"/>
<path fill="#FFFFFF" d="M23.1,4.4C22.7,3.5,22.5,3,22.5,3L1.9,10.8c0.2,0.5,0.3,0.8,0.4,1.1c0.1,0.3,0.2,0.4,0.2,0.5l2.3-1V22h16.4
	v-1.4H6.5v-9.8L23.1,4.4z M20.9,15.9V15h-3.1l-0.8-2.8h1.5v-0.9h-7.4v0.9h1.5L11.8,15H8.7v0.9h3l-1,3.8h1.1l1.2-3.8h3.9l1.2,3.8h1.1
	l-1-3.8H20.9z M10.8,14.3v-0.8H8.7v0.8H10.8z M16.6,15h-3.3l0.7-2.8h1.9L16.6,15z M21,14.4v-0.8h-2.2v0.8L21,14.4L21,14.4z"/>
</svg>
