<?xml version="1.0" encoding="utf-8"?>
<!-- Generator: Adobe Illustrator 18.0.0, SVG Export Plug-In . SVG Version: 6.00 Build 0)  -->
<!DOCTYPE svg PUBLIC "-//W3C//DTD SVG 1.1//EN" "http://www.w3.org/Graphics/SVG/1.1/DTD/svg11.dtd">
<svg version="1.1" id="Layer_1" xmlns="http://www.w3.org/2000/svg" xmlns:xlink="http://www.w3.org/1999/xlink" x="0px" y="0px"
	 viewBox="0 0 25 25" enable-background="new 0 0 25 25" xml:space="preserve">
<path fill="#684C2B" d="M21.7,0H3.3C1.1,0,0,1.1,0,3.3v18.6C0,24,1.1,25,3.3,25h18.4c2.1,0,3.3-1.1,3.3-3.3V3.3
	C24.9,1.1,23.8,0,21.7,0z"/>
<path fill="#FFFFFF" d="M20.2,18.6c0-0.1,0-0.1-0.1-0.2c-0.4-0.4-0.8-0.7-1.1-1c-0.3-0.3-0.5-0.5-0.6-0.6c0.5-0.9,0.8-1.7,0.8-2.4
	c0-0.5-0.2-0.9-0.5-1.2C18.5,13,18,13,17.1,13H16c-0.6,0-1,0-1,0c-0.5,0-0.8,0-0.9-0.1c-1.4-1.1-2.4-1.7-3.1-2
	c-0.2-0.1-0.6-0.2-1.1-0.2c-0.2,0-0.3,0-0.5,0s-0.4,0-0.6,0.1c-0.1-0.5-0.1-1-0.2-1.6C8.5,8.7,8.4,8.1,8.3,7.4
	c0-0.2-0.1-0.5-0.2-0.8C8,6.4,7.9,6.1,7.8,5.8c-0.3-0.6-0.5-1-0.6-0.9H5.9C5.3,4.9,5.1,5,5.1,5.3c0,0.4,0.6,0.7,1.7,1
	c0.1,0.9,0.2,1.6,0.3,2c0,0.5,0,0.7,0,0.7l0.3,3l-0.8-0.4l-0.3,0.1v0.4c0.4,0.2,0.7,0.4,0.9,0.5c0.2,0.1,0.3,0.2,0.4,0.2l0,0
	c-0.1,0-0.7,0.4-1.7,1.1l-2.5-1.1l-0.7-0.1l0.1,0.5l12,6.4c0.9,0.5,1.7,0.7,2.4,0.7c0.4,0,1.1-0.2,1.9-0.7
	C19.8,19.2,20.2,18.8,20.2,18.6z M18.8,18.7c-0.1,0.2-0.4,0.4-0.8,0.6c-0.3,0.1-0.5,0.2-0.7,0.2c-0.2,0.1-0.4,0.1-0.6,0.1h-0.2
	c-0.2,0-0.4,0-0.5-0.1l-9.5-5.1c0.1-0.3,0.3-0.5,0.6-0.8c0.1-0.1,0.5-0.2,1.1-0.5L18.8,18.7z M16.6,16.2c0,0.2-0.2,0.4-0.5,0.4
	c-0.1,0-0.1,0-0.3,0c-0.7-0.3-1-0.5-1.1-0.7c0.3,0,0.5-0.1,0.7-0.1c0.1,0,0.2,0,0.2,0c0.2,0,0.4,0.1,0.7,0.2
	C16.5,16,16.6,16.1,16.6,16.2z M23.1,13.8L23.1,13.8c-0.1-0.4-0.2-0.8-0.5-1.1s-0.7-0.5-1.1-0.5s-0.8,0.2-1.1,0.5s-0.5,0.7-0.5,1.2
	c0,0.4,0.2,0.8,0.5,1.1s0.7,0.5,1.1,0.5s0.8-0.2,1.1-0.5C22.9,14.6,23,14.2,23.1,13.8z"/>
</svg>
