<?xml version="1.0" encoding="utf-8"?>
<!-- Generator: Adobe Illustrator 18.0.0, SVG Export Plug-In . SVG Version: 6.00 Build 0)  -->
<!DOCTYPE svg PUBLIC "-//W3C//DTD SVG 1.1//EN" "http://www.w3.org/Graphics/SVG/1.1/DTD/svg11.dtd">
<svg version="1.1" id="Layer_1" xmlns="http://www.w3.org/2000/svg" xmlns:xlink="http://www.w3.org/1999/xlink" x="0px" y="0px"
	 viewBox="0 0 25 25" enable-background="new 0 0 25 25" xml:space="preserve">
<path fill="#684C2B" d="M21.7,0H3.3C1.1,0,0,1.1,0,3.3v18.6C0,24,1.1,25,3.3,25h18.4c2.1,0,3.3-1.1,3.3-3.3V3.3
	C24.9,1.1,23.8,0,21.7,0z"/>
<path fill="#FFFFFF" d="M23.4,19.9c0-0.2,0-0.3,0-0.4c-0.6,0.4-1.1,0.6-1.4,0.6h-2.9L19,19c2.1-0.7,3.2-1.3,3.2-1.8v-1.1l0.1-1
	c0-0.2,0-0.3-0.1-0.4l-2.1-1.3C18.7,12.6,18,12.1,18,12c-0.1-0.3-0.7-0.8-1.8-1.6l-0.4,1.8c-1.8-1-2.7-1.7-2.8-1.9c0,0,0-0.4,0-1.2
	C13,8,12.7,7.3,12.2,7c0-0.1,0-0.2,0-0.3V6.1c0-0.3,0.2-0.5,0.5-0.6s0.7-0.2,1.1-0.2c-0.6-1.3-1.3-1.9-2.2-1.9
	c-0.2,0-0.5,0.1-0.7,0.2c-0.2,0.1-0.4,0.3-0.6,0.5C10.1,4.4,10,4.6,9.9,4.8C9.8,5.1,9.7,5.3,9.7,5.6c0,0.1,0,0.1,0,0.1l0,0
	c0.2,0.8,0.5,1.2,1,1.4l-0.4,0.1c-0.6,0.1-1,1-1.3,2.4c0,0.7-0.1,1.4-0.2,2.2c-0.1,0.7-0.1,1.5-0.1,2.3c0,0.2,0,0.3,0,0.5
	c0,0.1,0,0.3,0,0.5H5c-0.3-1.1-1-1.7-1.9-1.8V16c-1,1.4-1.5,2.3-1.5,2.7c0,0.2,0.1,0.3,0.3,0.3h15.8v1.3h-3.9v1.1h8.7
	C23.1,21,23.4,20.5,23.4,19.9z M10.9,20.5H2.2c0.1,0.5,0.3,0.9,0.6,1c0.1,0,0.4,0.1,0.8,0.1h3.2c0.5,0,0.9-0.1,1.3-0.1
	c0.4,0,0.8,0,1.2,0s0.6,0,0.7,0l0,0C10.4,21.5,10.7,21.1,10.9,20.5z M15.2,13.7c-0.1,0.1-0.2,0.3-0.4,0.4c-0.2,0.3-0.4,0.4-0.4,0.5
	l0,0c0,0.1,0,0.2,0,0.3s0,0.1,0,0.2c0,0.3-0.1,0.4-0.4,0.4h0c-1.1-0.2-1.7-0.7-1.7-1.4c0-0.2,0-0.4,0-0.6c0-0.2,0.1-0.5,0.1-0.8
	c0.8,0.1,1.4,0.2,1.9,0.4C15,13.2,15.2,13.5,15.2,13.7z"/>
</svg>
