<?xml version="1.0" encoding="utf-8"?>
<!-- Generator: Adobe Illustrator 18.0.0, SVG Export Plug-In . SVG Version: 6.00 Build 0)  -->
<!DOCTYPE svg PUBLIC "-//W3C//DTD SVG 1.1//EN" "http://www.w3.org/Graphics/SVG/1.1/DTD/svg11.dtd">
<svg version="1.1" id="Layer_1" xmlns="http://www.w3.org/2000/svg" xmlns:xlink="http://www.w3.org/1999/xlink" x="0px" y="0px"
	 viewBox="0 0 25 25" enable-background="new 0 0 25 25" xml:space="preserve">
<rect fill-rule="evenodd" clip-rule="evenodd" fill="#444444" width="25" height="25"/>
<path fill-rule="evenodd" clip-rule="evenodd" fill="#FFFFFF" d="M22,19.6c0,0.4-0.1,0.7-0.2,0.9c-0.1,0.3-0.3,0.6-0.5,0.8
	c-0.5,0.4-1.1,0.7-1.7,0.7H5.4c-0.6,0-1.2-0.2-1.7-0.7c-0.5-0.4-0.7-1-0.7-1.7V5.4c0-0.7,0.2-1.2,0.7-1.7c0.5-0.4,1-0.7,1.7-0.7
	h14.3c0.6,0,1.2,0.2,1.7,0.7c0.2,0.2,0.4,0.4,0.5,0.8C21.9,4.8,22,5.1,22,5.4V19.6z"/>
<g>
	<polygon fill-rule="evenodd" clip-rule="evenodd" fill="#8C0000" points="8.4,20.7 8.4,12.9 4.3,12.9 12.5,4.3 20.7,12.9 
		16.6,12.9 16.6,20.7 	"/>
</g>
</svg>
