<?xml version="1.0" encoding="utf-8"?>
<!-- Generator: Adobe Illustrator 18.0.0, SVG Export Plug-In . SVG Version: 6.00 Build 0)  -->
<!DOCTYPE svg PUBLIC "-//W3C//DTD SVG 1.1//EN" "http://www.w3.org/Graphics/SVG/1.1/DTD/svg11.dtd">
<svg version="1.1" id="Layer_1" xmlns="http://www.w3.org/2000/svg" xmlns:xlink="http://www.w3.org/1999/xlink" x="0px" y="0px"
	 viewBox="0 0 25 25" enable-background="new 0 0 25 25" xml:space="preserve">
<path fill="#0C51A3" d="M21.7,0H3.3C1.1,0,0,1.1,0,3.3v18.6C0,24,1.1,25,3.3,25h18.4c2.1,0,3.3-1.1,3.3-3.3V3.3
	C24.9,1.1,23.8,0,21.7,0z"/>
<path fill="#FFFFFF" d="M21.8,5.3l-0.5,0.6c-0.4,0.4-0.6,0.7-1.3,0.7c-0.7,0-0.9-0.3-1.3-0.7l-0.6-0.6l0,0l0,0l-0.6,0.6
	c-0.4,0.4-0.6,0.7-1.3,0.7c-0.7,0-0.9-0.3-1.3-0.7l-0.6-0.6l0,0l0,0l-0.6,0.6c-0.4,0.4-0.6,0.7-1.3,0.7c-0.7,0-0.9-0.3-1.3-0.7
	l-0.6-0.6l0,0l0,0L10,5.9C9.7,6.3,9.4,6.6,8.7,6.6c-0.7,0-0.9-0.3-1.3-0.7L6.9,5.2l0,0l0,0L6.3,5.9C5.9,6.3,5.7,6.6,5,6.6
	c-0.7,0-0.9-0.3-1.3-0.7L3.2,5.3c0,0.1,0,0.1,0,0.2C3.2,6.4,3.7,8.1,5,8.1c0,0,0,0,0,0c0,0,0,0,0,0c0.9,0,1.4-0.3,1.9-0.6
	c0.4,0.3,1,0.6,1.9,0.6c0,0,0,0,0,0s0,0,0,0c0.9,0,1.4-0.3,1.9-0.6c0.4,0.3,1,0.6,1.9,0.6c0,0,0,0,0,0s0,0,0,0
	c0.9,0,1.4-0.3,1.9-0.6c0.4,0.3,1,0.6,1.9,0.6c0,0,0,0,0,0s0,0,0,0c0.9,0,1.4-0.3,1.9-0.6c0.4,0.3,1,0.6,1.9,0.6c0,0,0,0,0,0
	c0,0,0,0,0,0c1.3,0,1.8-1.7,1.8-2.6C21.7,5.4,21.8,5.4,21.8,5.3z"/>
<path fill="#FFFFFF" d="M21.8,17.3l-0.5,0.6c-0.4,0.4-0.6,0.7-1.3,0.7c-0.7,0-0.9-0.3-1.3-0.7l-0.6-0.6l0,0l0,0l-0.6,0.6
	c-0.4,0.4-0.6,0.7-1.3,0.7c-0.7,0-0.9-0.3-1.3-0.7l-0.6-0.6l0,0l0,0l-0.6,0.6c-0.4,0.4-0.6,0.7-1.3,0.7c-0.7,0-0.9-0.3-1.3-0.7
	l-0.6-0.6l0,0l0,0L10,17.9c-0.4,0.4-0.6,0.7-1.3,0.7c-0.7,0-0.9-0.3-1.3-0.7l-0.6-0.6l0,0l0,0l-0.6,0.6c-0.4,0.4-0.6,0.7-1.3,0.7
	c-0.7,0-0.9-0.3-1.3-0.7l-0.5-0.6c0,0.1,0,0.1,0,0.2c-0.1,0.9,0.5,2.6,1.8,2.6c0,0,0,0,0,0c0,0,0,0,0,0c0.9,0,1.4-0.3,1.9-0.6
	c0.4,0.3,1,0.6,1.9,0.6c0,0,0,0,0,0s0,0,0,0c0.9,0,1.4-0.3,1.9-0.6c0.4,0.3,1,0.6,1.9,0.6c0,0,0,0,0,0s0,0,0,0
	c0.9,0,1.4-0.3,1.9-0.6c0.4,0.3,1,0.6,1.9,0.6c0,0,0,0,0,0s0,0,0,0c0.9,0,1.4-0.3,1.9-0.6c0.4,0.3,1,0.6,1.9,0.6c0,0,0,0,0,0
	c0,0,0,0,0,0c1.3,0,1.8-1.7,1.8-2.6C21.7,17.4,21.8,17.4,21.8,17.3z"/>
<path fill="#FFFFFF" d="M21.8,11.3l-0.5,0.6c-0.4,0.4-0.6,0.7-1.3,0.7c-0.7,0-0.9-0.3-1.3-0.7l-0.6-0.6l0,0l0,0l-0.6,0.6
	c-0.4,0.4-0.6,0.7-1.3,0.7c-0.7,0-0.9-0.3-1.3-0.7l-0.6-0.6l0,0l0,0l-0.6,0.6c-0.4,0.4-0.6,0.7-1.3,0.7c-0.7,0-0.9-0.3-1.3-0.7
	l-0.6-0.6l0,0l0,0L10,11.9c-0.4,0.4-0.6,0.7-1.3,0.7c-0.7,0-0.9-0.3-1.3-0.7l-0.6-0.6l0,0l0,0l-0.6,0.6c-0.4,0.4-0.6,0.7-1.3,0.7
	c-0.7,0-0.9-0.3-1.3-0.7l-0.5-0.6c0,0.1,0,0.1,0,0.2c-0.1,0.9,0.5,2.6,1.8,2.6c0,0,0,0,0,0c0,0,0,0,0,0c0.9,0,1.4-0.3,1.9-0.6
	c0.4,0.3,1,0.6,1.9,0.6c0,0,0,0,0,0s0,0,0,0c0.9,0,1.4-0.3,1.9-0.6c0.4,0.3,1,0.6,1.9,0.6c0,0,0,0,0,0s0,0,0,0
	c0.9,0,1.4-0.3,1.9-0.6c0.4,0.3,1,0.6,1.9,0.6c0,0,0,0,0,0s0,0,0,0c0.9,0,1.4-0.3,1.9-0.6c0.4,0.3,1,0.6,1.9,0.6c0,0,0,0,0,0
	c0,0,0,0,0,0c1.3,0,1.8-1.7,1.8-2.6C21.7,11.4,21.8,11.4,21.8,11.3z"/>
</svg>
